<svg version="1.1" id="Layer_1" xmlns="http://www.w3.org/2000/svg" xmlns:xlink="http://www.w3.org/1999/xlink" x="0px" y="0px"
	 width="100%" viewBox="0 0 257 250" enable-background="new 0 0 257 250" xml:space="preserve">
<path fill="#000000" opacity="1.000000" stroke="none" 
	d="
M142.000000,251.000000 
	C94.666672,251.000000 47.833340,251.000000 1.000006,251.000000 
	C1.000004,167.666672 1.000004,84.333351 1.000002,1.000018 
	C86.666656,1.000012 172.333313,1.000012 258.000000,1.000006 
	C258.000000,84.333313 258.000000,167.666626 258.000000,250.999969 
	C219.500000,251.000000 181.000000,251.000000 142.000000,251.000000 
M149.326324,31.186543 
	C146.731644,28.844179 144.142441,26.495716 141.541275,24.160570 
	C133.007965,16.499954 126.900711,16.516493 118.452347,24.148455 
	C105.854530,35.528881 93.232948,46.882992 80.621819,58.248672 
	C62.816925,74.295189 45.002716,90.331398 27.214211,106.396057 
	C22.614590,110.549957 20.619802,115.521523 22.918764,121.633629 
	C25.067167,127.345451 29.399715,130.130112 36.152935,130.174881 
	C40.771034,130.205505 45.389496,130.180756 50.479065,130.180756 
	C50.479065,138.732468 50.447544,146.701340 50.485329,154.669891 
	C50.576927,173.987244 50.355419,193.314957 50.942043,212.617752 
	C51.290272,224.076324 59.809387,231.406219 71.314209,231.508896 
	C78.310226,231.571335 85.307343,231.543640 92.303795,231.515320 
	C102.461609,231.474197 106.984749,227.003479 107.003456,216.964737 
	C107.027054,204.304321 107.009163,191.643814 107.009171,178.983353 
	C107.009171,172.202148 107.009178,165.420959 107.009178,158.491699 
	C122.565300,158.491699 137.614532,158.491699 152.990829,158.491699 
	C152.990829,160.608673 152.990829,162.417038 152.990845,164.225403 
	C152.991028,182.216583 152.942520,200.207962 153.013107,218.198853 
	C153.045486,226.449356 157.757874,231.313065 165.932571,231.481949 
	C173.758743,231.643631 181.592834,231.629608 189.419815,231.489212 
	C198.632599,231.323990 205.763626,226.061127 208.266861,217.231262 
	C209.246002,213.777573 209.453644,210.016296 209.469193,206.392746 
	C209.570038,182.904694 209.520981,159.416000 209.521011,135.927505 
	C209.521027,134.161209 209.521011,132.394897 209.521011,130.179092 
	C215.169861,130.179092 220.134460,130.222610 225.097977,130.167542 
	C230.689804,130.105499 234.555634,127.241219 236.815216,122.310745 
	C239.527222,116.393127 237.861221,110.941345 231.846100,105.519806 
	C204.521530,80.891617 177.175812,56.286873 149.326324,31.186543 
z"/>
<path fill="#E9D23A" opacity="1.000000" stroke="none" 
	d="
M149.582016,31.430119 
	C177.175812,56.286873 204.521530,80.891617 231.846100,105.519806 
	C237.861221,110.941345 239.527222,116.393127 236.815216,122.310745 
	C234.555634,127.241219 230.689804,130.105499 225.097977,130.167542 
	C220.134460,130.222610 215.169861,130.179092 209.521011,130.179092 
	C209.521011,132.394897 209.521027,134.161209 209.521011,135.927505 
	C209.520981,159.416000 209.570038,182.904694 209.469193,206.392746 
	C209.453644,210.016296 209.246002,213.777573 208.266861,217.231262 
	C205.763626,226.061127 198.632599,231.323990 189.419815,231.489212 
	C181.592834,231.629608 173.758743,231.643631 165.932571,231.481949 
	C157.757874,231.313065 153.045486,226.449356 153.013107,218.198853 
	C152.942520,200.207962 152.991028,182.216583 152.990845,164.225403 
	C152.990829,162.417038 152.990829,160.608673 152.990829,158.491699 
	C137.614532,158.491699 122.565300,158.491699 107.009178,158.491699 
	C107.009178,165.420959 107.009171,172.202148 107.009171,178.983353 
	C107.009163,191.643814 107.027054,204.304321 107.003456,216.964737 
	C106.984749,227.003479 102.461609,231.474197 92.303795,231.515320 
	C85.307343,231.543640 78.310226,231.571335 71.314209,231.508896 
	C59.809387,231.406219 51.290272,224.076324 50.942043,212.617752 
	C50.355419,193.314957 50.576927,173.987244 50.485329,154.669891 
	C50.447544,146.701340 50.479065,138.732468 50.479065,130.180756 
	C45.389496,130.180756 40.771034,130.205505 36.152935,130.174881 
	C29.399715,130.130112 25.067167,127.345451 22.918764,121.633629 
	C20.619802,115.521523 22.614590,110.549957 27.214211,106.396057 
	C45.002716,90.331398 62.816925,74.295189 80.621819,58.248672 
	C93.232948,46.882992 105.854530,35.528881 118.452347,24.148455 
	C126.900711,16.516493 133.007965,16.499954 141.541275,24.160570 
	C144.142441,26.495716 146.731644,28.844179 149.582016,31.430119 
M201.618317,115.158905 
	C207.303482,115.158905 212.988647,115.158905 219.805588,115.158905 
	C189.203476,87.605476 159.682404,61.025394 129.991272,34.292198 
	C100.117020,61.202816 70.646767,87.749504 40.036835,115.322815 
	C49.540760,115.322815 57.562359,115.322815 65.844833,115.322815 
	C65.844833,133.596222 65.844765,151.242050 65.844864,168.887878 
	C65.844940,182.383484 65.860672,195.879135 65.834717,209.374695 
	C65.828117,212.805710 66.350655,216.078476 70.561913,216.230469 
	C77.487801,216.480438 84.429291,216.298233 91.821587,216.298233 
	C91.821587,214.035431 91.821579,212.234970 91.821594,210.434494 
	C91.821754,192.107132 91.789627,173.779678 91.835960,155.452423 
	C91.858444,146.557007 95.434471,143.010529 104.256218,142.999146 
	C121.250656,142.977234 138.245148,142.984497 155.239624,142.995972 
	C164.745758,143.002380 168.159882,146.400787 168.171722,155.933517 
	C168.194473,174.260864 168.178406,192.588242 168.178452,210.915619 
	C168.178452,212.654099 168.178452,214.392578 168.178452,215.872803 
	C169.309723,216.223068 169.624802,216.403732 169.941284,216.406219 
	C175.105469,216.446838 180.269882,216.491959 185.434143,216.481766 
	C193.184555,216.466461 194.150269,215.513763 194.152206,207.899887 
	C194.159531,178.909317 194.155182,149.918762 194.155197,120.928200 
	C194.155197,119.154732 194.155197,117.381264 194.155197,115.158913 
	C196.732925,115.158913 198.694275,115.158913 201.618317,115.158905 
z"/>
<path fill="#010100" opacity="1.000000" stroke="none" 
	d="
M201.136963,115.158905 
	C198.694275,115.158913 196.732925,115.158913 194.155197,115.158913 
	C194.155197,117.381264 194.155197,119.154732 194.155197,120.928200 
	C194.155182,149.918762 194.159531,178.909317 194.152206,207.899887 
	C194.150269,215.513763 193.184555,216.466461 185.434143,216.481766 
	C180.269882,216.491959 175.105469,216.446838 169.941284,216.406219 
	C169.624802,216.403732 169.309723,216.223068 168.178452,215.872803 
	C168.178452,214.392578 168.178452,212.654099 168.178452,210.915619 
	C168.178406,192.588242 168.194473,174.260864 168.171722,155.933517 
	C168.159882,146.400787 164.745758,143.002380 155.239624,142.995972 
	C138.245148,142.984497 121.250656,142.977234 104.256218,142.999146 
	C95.434471,143.010529 91.858444,146.557007 91.835960,155.452423 
	C91.789627,173.779678 91.821754,192.107132 91.821594,210.434494 
	C91.821579,212.234970 91.821587,214.035431 91.821587,216.298233 
	C84.429291,216.298233 77.487801,216.480438 70.561913,216.230469 
	C66.350655,216.078476 65.828117,212.805710 65.834717,209.374695 
	C65.860672,195.879135 65.844940,182.383484 65.844864,168.887878 
	C65.844765,151.242050 65.844833,133.596222 65.844833,115.322815 
	C57.562359,115.322815 49.540760,115.322815 40.036835,115.322815 
	C70.646767,87.749504 100.117020,61.202816 129.991272,34.292198 
	C159.682404,61.025394 189.203476,87.605476 219.805588,115.158905 
	C212.988647,115.158905 207.303482,115.158905 201.136963,115.158905 
z"/>
</svg>