<svg version="1.1" id="Layer_1" xmlns="http://www.w3.org/2000/svg" xmlns:xlink="http://www.w3.org/1999/xlink" x="0px" y="0px"
	 width="100%" viewBox="0 0 266 254" enable-background="new 0 0 266 254" xml:space="preserve">
<path fill="#010100" opacity="1.000000" stroke="none" 
	d="
M157.000000,255.000000 
	C106.000000,255.000000 55.499878,254.955948 5.000273,255.097519 
	C1.574971,255.107117 0.898837,254.424194 0.903989,250.999863 
	C1.027367,169.000046 1.027367,86.999962 0.903989,5.000144 
	C0.898837,1.575806 1.575862,0.899249 5.000136,0.904107 
	C90.999962,1.026112 177.000031,1.026112 262.999878,0.904107 
	C266.424133,0.899250 267.101166,1.575806 267.096008,5.000144 
	C266.972656,86.999962 266.972626,169.000046 267.096008,250.999863 
	C267.101166,254.424194 266.426178,255.114777 262.999542,255.099045 
	C227.833618,254.937454 192.666672,255.000000 157.000000,255.000000 
z"/>
<path fill="#E6CF39" opacity="1.000000" stroke="none" 
	d="
M239.894196,145.975586 
	C232.166382,163.681442 224.739609,181.107147 216.936325,198.362595 
	C197.629944,241.054901 150.468201,251.241394 117.484192,235.378937 
	C99.384247,226.674438 87.252815,212.281067 80.261406,193.580933 
	C79.213570,190.778275 78.054794,189.418808 74.969070,188.720383 
	C41.590450,181.165344 17.990828,151.396347 17.985676,117.144676 
	C17.981091,86.655457 17.984713,56.166241 17.984711,25.677021 
	C17.984711,23.920012 17.984711,22.163002 17.984711,19.546993 
	C67.179634,46.954601 115.918549,46.987843 164.520981,19.982828 
	C165.609207,22.160614 165.161224,23.989285 165.164566,25.739906 
	C165.203049,45.899372 165.279236,66.059723 165.102631,86.217720 
	C165.072327,89.675941 166.156769,91.515175 169.173401,93.170616 
	C194.338776,106.980637 221.335068,111.522133 249.684097,109.503563 
	C251.498978,109.374336 253.308823,109.174400 255.993378,108.926949 
	C250.518967,121.504791 245.271439,133.561356 239.894196,145.975586 
z"/>
<path fill="#020100" opacity="1.000000" stroke="none" 
	d="
M142.252625,159.220795 
	C123.167786,180.361176 99.887344,187.741638 72.979103,179.944061 
	C46.346302,172.226318 31.263266,153.342957 26.332796,126.231140 
	C25.948191,124.116264 25.875854,121.921524 25.873627,119.763680 
	C25.844738,91.785400 25.853456,63.807076 25.862314,35.828766 
	C25.862566,35.036861 25.969152,34.244991 26.063328,32.936729 
	C47.046982,42.939472 68.802979,48.229046 91.761452,48.189587 
	C114.550941,48.150414 136.182419,43.032810 156.707169,33.138496 
	C157.979736,35.043121 157.439575,36.902973 157.442337,38.641243 
	C157.483292,64.454498 157.412521,90.268028 157.491882,116.081108 
	C157.541336,132.174362 152.591873,146.446518 142.252625,159.220795 
z"/>
<path fill="#020201" opacity="1.000000" stroke="none" 
	d="
M196.188034,215.187195 
	C163.044449,247.483994 108.966103,237.856827 89.846069,196.553970 
	C87.367920,191.200714 87.370773,191.239014 92.936081,190.825043 
	C105.363327,189.900650 117.324013,187.048492 128.164444,180.808975 
	C132.388565,178.377686 136.267365,178.361176 140.518204,179.709579 
	C153.947281,183.969467 161.735031,193.780136 165.581299,206.683777 
	C166.964905,211.325546 169.444138,210.443680 172.183563,209.781998 
	C175.839157,208.898987 173.683395,206.294250 173.104218,204.568909 
	C167.976379,189.292908 159.161972,177.429642 142.927628,172.596405 
	C142.480774,172.463364 142.117035,172.051163 141.297684,171.477051 
	C162.402344,152.264542 167.370804,127.542549 164.772079,99.694725 
	C174.583542,104.423164 183.461227,108.421265 192.823029,111.281807 
	C208.079514,115.943542 223.656509,118.205208 239.569138,117.890404 
	C243.343903,117.815727 243.324799,118.771294 242.028259,121.709885 
	C230.960373,146.794937 220.044281,171.946976 208.967911,197.028259 
	C205.985397,203.781845 201.686798,209.713943 196.188034,215.187195 
z"/>
<path fill="#E6CF39" opacity="1.000000" stroke="none" 
	d="
M42.095646,93.924347 
	C35.041969,86.187798 35.964920,78.674309 44.338612,73.210915 
	C53.469555,67.253464 68.674995,67.483749 77.531006,73.713608 
	C86.034630,79.695572 86.034607,89.106117 77.530952,95.137535 
	C67.850380,102.003716 52.693188,101.584915 42.095646,93.924347 
z"/>
<path fill="#E6CF39" opacity="1.000000" stroke="none" 
	d="
M144.430176,90.132996 
	C137.693466,101.466766 114.563873,103.746506 103.473755,93.310921 
	C98.241859,88.387817 98.143967,81.210434 103.115334,76.015884 
	C111.990311,66.742485 133.065521,66.506721 142.053223,75.695023 
	C146.006073,79.736107 147.314590,84.461349 144.430176,90.132996 
z"/>
<path fill="#E7D039" opacity="1.000000" stroke="none" 
	d="
M84.495155,149.880035 
	C72.322128,147.622086 62.553223,142.080460 55.176422,132.636826 
	C54.246593,131.446457 51.228451,129.966034 54.479706,128.015640 
	C56.626514,126.727814 58.237259,124.061050 61.315010,127.735992 
	C73.622452,142.431442 91.463661,146.520218 107.992302,138.949814 
	C113.368095,136.487610 118.290520,133.168671 121.530632,128.259247 
	C124.169998,124.260071 126.128326,126.153961 128.601669,127.888710 
	C132.281799,130.469894 128.573868,132.039154 127.527328,133.288818 
	C116.410072,146.563736 102.020645,151.762939 84.495155,149.880035 
z"/>
<path fill="#E6CF39" opacity="1.000000" stroke="none" 
	d="
M184.952179,134.087631 
	C194.934311,134.882935 203.121460,138.496979 209.270325,145.982178 
	C212.838089,150.325317 214.690887,155.316956 212.055756,160.799118 
	C209.541168,166.030426 204.723984,167.741791 199.290695,168.020660 
	C190.172913,168.488617 182.254501,165.425186 175.566544,159.359955 
	C170.654617,154.905380 167.080750,149.498291 169.502869,142.593811 
	C171.905197,135.745712 178.073471,134.388702 184.952179,134.087631 
z"/>
<path fill="#050501" opacity="1.000000" stroke="none" 
	d="
M52.373074,77.997993 
	C59.728165,76.089890 66.556694,75.967270 72.846176,79.998283 
	C77.148537,82.755707 77.191643,86.268196 72.791908,88.881004 
	C65.433250,93.250984 57.681709,93.195946 49.943962,89.825989 
	C47.634499,88.820168 45.324734,87.271126 45.221874,84.524864 
	C45.116707,81.716751 47.484684,80.313255 49.719234,79.114243 
	C50.444695,78.724976 51.219700,78.428055 52.373074,77.997993 
z"/>
<path fill="#050501" opacity="1.000000" stroke="none" 
	d="
M129.861206,77.734879 
	C133.667999,79.144844 138.063721,80.102264 137.875687,84.537262 
	C137.684219,89.053238 133.272705,90.263229 129.574753,91.235016 
	C123.085373,92.940346 116.663528,92.710815 110.769699,89.109459 
	C106.108208,86.261101 106.053368,82.842918 110.668243,79.898552 
	C116.513741,76.169022 122.936523,76.210236 129.861206,77.734879 
z"/>
<path fill="#040401" opacity="1.000000" stroke="none" 
	d="
M201.423645,159.935257 
	C192.041763,161.128052 184.688599,158.053802 178.795166,151.386749 
	C177.237534,149.624649 175.971848,147.474960 177.028214,145.025009 
	C178.087997,142.567093 180.488998,142.112122 182.873459,141.993195 
	C191.254150,141.575180 198.135513,144.779953 203.479752,151.089600 
	C206.623306,154.801025 206.017807,157.173615 201.423645,159.935257 
z"/>
</svg>