<svg version="1.1" id="Layer_1" xmlns="http://www.w3.org/2000/svg" xmlns:xlink="http://www.w3.org/1999/xlink" x="0px" y="0px"
	 width="100%" viewBox="0 0 234 216" enable-background="new 0 0 234 216" xml:space="preserve">
<path fill="#010100" opacity="1.000000" stroke="none" 
	d="
M133.000000,217.000000 
	C88.666672,217.000000 44.833340,217.000000 1.000006,217.000000 
	C1.000004,145.000000 1.000004,73.000015 1.000002,1.000015 
	C78.999992,1.000010 156.999985,1.000010 234.999969,1.000005 
	C234.999985,72.999985 234.999985,144.999969 235.000000,216.999969 
	C201.166672,217.000000 167.333328,217.000000 133.000000,217.000000 
M165.848251,175.499939 
	C164.905212,164.741669 168.318207,153.562607 162.998367,143.700912 
	C168.310577,139.080872 173.871323,134.840546 178.650238,129.851349 
	C181.262527,127.124123 183.185608,126.217621 186.994400,127.098335 
	C202.524368,130.689377 218.063843,121.576187 222.839203,106.534920 
	C225.480362,98.215912 224.006836,95.788727 215.517700,94.057121 
	C207.747726,92.472198 200.426346,93.970032 193.467194,97.354782 
	C191.966370,93.253334 194.050323,91.734421 197.047302,90.132202 
	C213.013809,81.596298 218.100464,61.445423 208.293839,46.288940 
	C205.138947,41.412933 203.778244,41.088139 198.489700,43.772739 
	C191.564407,47.288181 186.998077,53.010452 183.665100,59.963516 
	C181.157410,57.053337 179.175659,54.033543 176.480362,51.926590 
	C175.113922,50.858421 172.459900,51.437355 170.388000,51.271637 
	C170.349548,53.365036 170.123581,55.480484 170.365829,57.540874 
	C170.461441,58.353981 171.604156,59.041203 172.263947,59.791145 
	C189.241592,79.088905 188.548447,108.247780 170.358353,126.369011 
	C161.909302,134.786072 152.188461,140.813675 139.007050,138.825272 
	C139.007050,134.662811 138.979156,130.693527 139.015823,126.724846 
	C139.045563,123.504959 137.567856,121.741859 134.300247,121.522766 
	C133.021103,121.437004 131.749542,121.237999 130.439270,121.086502 
	C130.439270,113.519722 130.439270,106.275055 130.439270,98.377106 
	C133.544449,99.777321 136.138138,101.207703 138.904373,102.107773 
	C140.940521,102.770279 144.142120,103.727905 145.138443,102.780701 
	C146.555542,101.433441 147.053436,98.398659 146.839737,96.191780 
	C146.198730,89.572441 145.124969,82.987442 144.008469,76.425049 
	C143.485397,73.350616 144.191498,71.161331 146.533203,68.948730 
	C151.492737,64.262665 156.229706,59.321426 160.786575,54.241428 
	C162.060333,52.821449 163.334137,50.266457 162.878525,48.752628 
	C162.431793,47.268299 159.914169,45.839092 158.077637,45.443687 
	C151.578506,44.044411 145.004501,42.928204 138.412857,42.050087 
	C135.002563,41.595776 132.720581,40.467899 131.173111,37.127354 
	C128.380676,31.099243 125.222351,25.222126 121.879112,19.478535 
	C120.824280,17.666359 118.706230,15.352112 117.046875,15.329661 
	C115.404541,15.307444 113.207352,17.584988 112.160301,19.382086 
	C108.731636,25.266851 105.510025,31.296076 102.629562,37.466183 
	C101.228691,40.466911 99.205589,41.512180 96.188637,41.960709 
	C89.278206,42.988068 82.380562,44.141926 75.525269,45.486767 
	C70.025490,46.565681 68.966309,49.795635 72.737381,53.859436 
	C77.382339,58.864971 81.995010,63.939411 87.049576,68.510910 
	C89.948456,71.132744 90.466927,73.800735 89.882133,77.316147 
	C88.789619,83.883728 87.733704,90.467468 87.001610,97.082016 
	C86.305031,103.375618 88.906258,105.085907 94.594551,102.467964 
	C97.501938,101.129883 100.438126,99.854393 103.513077,98.482918 
	C103.513077,106.502983 103.513077,113.768890 103.513077,120.976219 
	C94.990402,122.307343 94.990379,122.307343 94.990150,131.125610 
	C94.990082,133.732361 94.990143,136.339111 94.990143,139.852905 
	C89.709229,139.048401 84.901443,139.090805 80.679855,137.538757 
	C62.352104,130.800751 49.932713,112.901321 49.539116,93.317986 
	C49.280586,80.455040 53.410076,69.146164 61.976837,59.507389 
	C64.115517,57.101078 66.903038,54.519508 63.624382,51.444740 
	C60.021061,48.065510 57.688713,51.382484 55.485783,53.907341 
	C53.790688,55.850147 52.152920,57.842976 50.285530,60.055405 
	C46.935413,52.686062 42.052322,47.280125 35.208733,43.514984 
	C30.881737,41.134407 28.228962,42.223137 25.689999,46.147671 
	C15.816197,61.409836 20.958721,81.568268 37.276199,90.290031 
	C40.340473,91.927895 41.911209,93.648567 40.455288,97.410240 
	C32.469032,93.382492 24.281555,92.151810 15.729628,94.830597 
	C10.051916,96.609077 9.108918,98.240135 10.480865,103.989700 
	C14.477555,120.739037 30.459553,130.744583 47.386395,127.205551 
	C49.141502,126.838593 51.709099,126.395340 52.766422,127.304893 
	C59.009144,132.675125 64.916512,138.435196 70.516388,143.671005 
	C69.770073,146.896088 68.335861,150.375565 68.264755,153.882675 
	C67.991165,167.376724 68.176697,180.879684 68.141068,194.379181 
	C68.129326,198.830353 69.869804,201.081207 74.691414,201.062668 
	C102.856827,200.954468 131.023102,200.952759 159.188477,201.065216 
	C163.934525,201.084152 165.885406,199.020996 165.855438,194.499252 
	C165.815659,188.499695 165.847290,182.499664 165.848251,175.499939 
z"/>
<path fill="#E8D13A" opacity="1.000000" stroke="none" 
	d="
M165.848251,175.999893 
	C165.847290,182.499664 165.815659,188.499695 165.855438,194.499252 
	C165.885406,199.020996 163.934525,201.084152 159.188477,201.065216 
	C131.023102,200.952759 102.856827,200.954468 74.691414,201.062668 
	C69.869804,201.081207 68.129326,198.830353 68.141068,194.379181 
	C68.176697,180.879684 67.991165,167.376724 68.264755,153.882675 
	C68.335861,150.375565 69.770073,146.896088 70.516388,143.671005 
	C64.916512,138.435196 59.009144,132.675125 52.766422,127.304893 
	C51.709099,126.395340 49.141502,126.838593 47.386395,127.205551 
	C30.459553,130.744583 14.477555,120.739037 10.480865,103.989700 
	C9.108918,98.240135 10.051916,96.609077 15.729628,94.830597 
	C24.281555,92.151810 32.469032,93.382492 40.455288,97.410240 
	C41.911209,93.648567 40.340473,91.927895 37.276199,90.290031 
	C20.958721,81.568268 15.816197,61.409836 25.689999,46.147671 
	C28.228962,42.223137 30.881737,41.134407 35.208733,43.514984 
	C42.052322,47.280125 46.935413,52.686062 50.285530,60.055405 
	C52.152920,57.842976 53.790688,55.850147 55.485783,53.907341 
	C57.688713,51.382484 60.021061,48.065510 63.624382,51.444740 
	C66.903038,54.519508 64.115517,57.101078 61.976837,59.507389 
	C53.410076,69.146164 49.280586,80.455040 49.539116,93.317986 
	C49.932713,112.901321 62.352104,130.800751 80.679855,137.538757 
	C84.901443,139.090805 89.709229,139.048401 94.990143,139.852905 
	C94.990143,136.339111 94.990082,133.732361 94.990150,131.125610 
	C94.990379,122.307343 94.990402,122.307343 103.513077,120.976219 
	C103.513077,113.768890 103.513077,106.502983 103.513077,98.482918 
	C100.438126,99.854393 97.501938,101.129883 94.594551,102.467964 
	C88.906258,105.085907 86.305031,103.375618 87.001610,97.082016 
	C87.733704,90.467468 88.789619,83.883728 89.882133,77.316147 
	C90.466927,73.800735 89.948456,71.132744 87.049576,68.510910 
	C81.995010,63.939411 77.382339,58.864971 72.737381,53.859436 
	C68.966309,49.795635 70.025490,46.565681 75.525269,45.486767 
	C82.380562,44.141926 89.278206,42.988068 96.188637,41.960709 
	C99.205589,41.512180 101.228691,40.466911 102.629562,37.466183 
	C105.510025,31.296076 108.731636,25.266851 112.160301,19.382086 
	C113.207352,17.584988 115.404541,15.307444 117.046875,15.329661 
	C118.706230,15.352112 120.824280,17.666359 121.879112,19.478535 
	C125.222351,25.222126 128.380676,31.099243 131.173111,37.127354 
	C132.720581,40.467899 135.002563,41.595776 138.412857,42.050087 
	C145.004501,42.928204 151.578506,44.044411 158.077637,45.443687 
	C159.914169,45.839092 162.431793,47.268299 162.878525,48.752628 
	C163.334137,50.266457 162.060333,52.821449 160.786575,54.241428 
	C156.229706,59.321426 151.492737,64.262665 146.533203,68.948730 
	C144.191498,71.161331 143.485397,73.350616 144.008469,76.425049 
	C145.124969,82.987442 146.198730,89.572441 146.839737,96.191780 
	C147.053436,98.398659 146.555542,101.433441 145.138443,102.780701 
	C144.142120,103.727905 140.940521,102.770279 138.904373,102.107773 
	C136.138138,101.207703 133.544449,99.777321 130.439270,98.377106 
	C130.439270,106.275055 130.439270,113.519722 130.439270,121.086502 
	C131.749542,121.237999 133.021103,121.437004 134.300247,121.522766 
	C137.567856,121.741859 139.045563,123.504959 139.015823,126.724846 
	C138.979156,130.693527 139.007050,134.662811 139.007050,138.825272 
	C152.188461,140.813675 161.909302,134.786072 170.358353,126.369011 
	C188.548447,108.247780 189.241592,79.088905 172.263947,59.791145 
	C171.604156,59.041203 170.461441,58.353981 170.365829,57.540874 
	C170.123581,55.480484 170.349548,53.365036 170.388000,51.271637 
	C172.459900,51.437355 175.113922,50.858421 176.480362,51.926590 
	C179.175659,54.033543 181.157410,57.053337 183.665100,59.963516 
	C186.998077,53.010452 191.564407,47.288181 198.489700,43.772739 
	C203.778244,41.088139 205.138947,41.412933 208.293839,46.288940 
	C218.100464,61.445423 213.013809,81.596298 197.047302,90.132202 
	C194.050323,91.734421 191.966370,93.253334 193.467194,97.354782 
	C200.426346,93.970032 207.747726,92.472198 215.517700,94.057121 
	C224.006836,95.788727 225.480362,98.215912 222.839203,106.534920 
	C218.063843,121.576187 202.524368,130.689377 186.994400,127.098335 
	C183.185608,126.217621 181.262527,127.124123 178.650238,129.851349 
	C173.871323,134.840546 168.310577,139.080872 162.998367,143.700912 
	C168.318207,153.562607 164.905212,164.741669 165.848251,175.999893 
M103.500076,147.843262 
	C96.509720,147.845047 89.519287,147.865158 82.529030,147.840103 
	C79.504265,147.829269 77.078194,148.753830 77.054253,152.188095 
	C76.961708,165.467926 77.016655,178.748795 77.016655,192.242126 
	C103.827293,192.242126 130.191696,192.242126 156.993912,192.242126 
	C156.993912,182.711990 157.060455,173.423141 156.979858,164.135574 
	C156.819641,145.673492 159.516647,147.959320 140.949646,147.856018 
	C128.800140,147.788422 116.649956,147.843262 103.500076,147.843262 
M131.552551,89.052505 
	C133.180191,89.756866 134.807846,90.461220 137.505981,91.628822 
	C136.633835,85.511375 135.959305,80.319260 135.135025,75.151024 
	C134.527756,71.343369 134.896439,68.171791 138.127670,65.314964 
	C142.246124,61.673733 145.833267,57.431538 150.312927,52.755882 
	C143.964386,51.673550 138.782410,50.624260 133.551926,49.952705 
	C129.616608,49.447433 126.873352,47.969563 125.144058,44.110867 
	C122.877098,39.052425 120.003067,34.266052 116.988037,28.608082 
	C113.961533,34.283913 111.119118,38.939034 108.951729,43.889687 
	C107.169579,47.960396 104.261337,49.451305 100.165657,49.985775 
	C94.954353,50.665821 89.793694,51.733994 83.643570,52.803040 
	C88.335808,57.653942 92.593346,61.588455 96.229721,66.031372 
	C97.812141,67.964760 98.966476,70.987457 98.835785,73.436470 
	C98.524467,79.270058 97.332275,85.056625 96.379143,91.672638 
	C99.226250,90.418983 101.739502,89.815193 103.637558,88.391335 
	C112.881165,81.457001 121.860382,82.135292 131.552551,89.052505 
M200.841614,52.317894 
	C190.289520,59.851604 187.435120,71.259071 193.421875,81.970619 
	C204.195282,76.612152 207.870300,63.149342 200.841614,52.317894 
M37.362976,80.242264 
	C38.415169,80.885284 39.467361,81.528313 40.540665,82.184235 
	C46.567951,70.526176 43.090141,58.146782 32.416592,52.184105 
	C26.930639,61.720798 28.397619,71.019821 37.362976,80.242264 
M121.589432,105.532204 
	C121.581062,102.218864 122.034729,98.807594 121.362259,95.635025 
	C121.043533,94.131363 118.586029,92.119652 117.073769,92.099289 
	C115.544662,92.078682 112.706596,94.175293 112.647415,95.447083 
	C112.250076,103.986084 112.440666,112.552437 112.440666,121.213821 
	C115.776810,121.213821 118.476936,121.213821 121.589363,121.213821 
	C121.589363,116.065781 121.589363,111.290741 121.589432,105.532204 
M45.082909,114.791534 
	C39.209175,104.354965 28.772076,99.587929 19.631678,103.166954 
	C21.947392,113.645004 33.007156,120.927475 43.586681,119.176666 
	C46.384060,118.713722 46.405918,117.539764 45.082909,114.791534 
M189.986023,119.065338 
	C202.469757,120.098045 212.087662,113.812660 214.347473,103.144897 
	C204.542557,99.388206 190.570740,106.547646 188.209305,116.624352 
	C188.053909,117.287498 188.800995,118.162132 189.986023,119.065338 
M122.406570,129.993942 
	C116.199570,129.993942 109.992577,129.993942 103.841301,129.993942 
	C103.841301,133.444427 103.841301,136.164413 103.841301,138.993240 
	C112.773819,138.993240 121.350708,138.993240 130.160080,138.993240 
	C130.160080,135.943497 130.160080,133.079941 130.160080,129.993942 
	C127.662071,129.993942 125.516670,129.993942 122.406570,129.993942 
z"/>
<path fill="#030201" opacity="1.000000" stroke="none" 
	d="
M104.000076,147.843262 
	C116.649956,147.843262 128.800140,147.788422 140.949646,147.856018 
	C159.516647,147.959320 156.819641,145.673492 156.979858,164.135574 
	C157.060455,173.423141 156.993912,182.711990 156.993912,192.242126 
	C130.191696,192.242126 103.827293,192.242126 77.016655,192.242126 
	C77.016655,178.748795 76.961708,165.467926 77.054253,152.188095 
	C77.078194,148.753830 79.504265,147.829269 82.529030,147.840103 
	C89.519287,147.865158 96.509720,147.845047 104.000076,147.843262 
z"/>
<path fill="#030301" opacity="1.000000" stroke="none" 
	d="
M131.187500,88.927002 
	C121.860382,82.135292 112.881165,81.457001 103.637558,88.391335 
	C101.739502,89.815193 99.226250,90.418983 96.379143,91.672638 
	C97.332275,85.056625 98.524467,79.270058 98.835785,73.436470 
	C98.966476,70.987457 97.812141,67.964760 96.229721,66.031372 
	C92.593346,61.588455 88.335808,57.653942 83.643570,52.803040 
	C89.793694,51.733994 94.954353,50.665821 100.165657,49.985775 
	C104.261337,49.451305 107.169579,47.960396 108.951729,43.889687 
	C111.119118,38.939034 113.961533,34.283913 116.988037,28.608082 
	C120.003067,34.266052 122.877098,39.052425 125.144058,44.110867 
	C126.873352,47.969563 129.616608,49.447433 133.551926,49.952705 
	C138.782410,50.624260 143.964386,51.673550 150.312927,52.755882 
	C145.833267,57.431538 142.246124,61.673733 138.127670,65.314964 
	C134.896439,68.171791 134.527756,71.343369 135.135025,75.151024 
	C135.959305,80.319260 136.633835,85.511375 137.505981,91.628822 
	C134.807846,90.461220 133.180191,89.756866 131.187500,88.927002 
z"/>
<path fill="#090802" opacity="1.000000" stroke="none" 
	d="
M201.199768,52.241699 
	C207.870300,63.149342 204.195282,76.612152 193.421875,81.970619 
	C187.435120,71.259071 190.289520,59.851604 201.199768,52.241699 
z"/>
<path fill="#090802" opacity="1.000000" stroke="none" 
	d="
M37.069008,80.027039 
	C28.397619,71.019821 26.930639,61.720798 32.416592,52.184105 
	C43.090141,58.146782 46.567951,70.526176 40.540665,82.184235 
	C39.467361,81.528313 38.415169,80.885284 37.069008,80.027039 
z"/>
<path fill="#1A1807" opacity="1.000000" stroke="none" 
	d="
M121.589401,106.023956 
	C121.589363,111.290741 121.589363,116.065781 121.589363,121.213821 
	C118.476936,121.213821 115.776810,121.213821 112.440666,121.213821 
	C112.440666,112.552437 112.250076,103.986084 112.647415,95.447083 
	C112.706596,94.175293 115.544662,92.078682 117.073769,92.099289 
	C118.586029,92.119652 121.043533,94.131363 121.362259,95.635025 
	C122.034729,98.807594 121.581062,102.218864 121.589401,106.023956 
z"/>
<path fill="#060602" opacity="1.000000" stroke="none" 
	d="
M45.245903,115.156830 
	C46.405918,117.539764 46.384060,118.713722 43.586681,119.176666 
	C33.007156,120.927475 21.947392,113.645004 19.631678,103.166954 
	C28.772076,99.587929 39.209175,104.354965 45.245903,115.156830 
z"/>
<path fill="#060602" opacity="1.000000" stroke="none" 
	d="
M189.557159,119.001869 
	C188.800995,118.162132 188.053909,117.287498 188.209305,116.624352 
	C190.570740,106.547646 204.542557,99.388206 214.347473,103.144897 
	C212.087662,113.812660 202.469757,120.098045 189.557159,119.001869 
z"/>
<path fill="#090802" opacity="1.000000" stroke="none" 
	d="
M122.888924,129.993942 
	C125.516670,129.993942 127.662071,129.993942 130.160080,129.993942 
	C130.160080,133.079941 130.160080,135.943497 130.160080,138.993240 
	C121.350708,138.993240 112.773819,138.993240 103.841301,138.993240 
	C103.841301,136.164413 103.841301,133.444427 103.841301,129.993942 
	C109.992577,129.993942 116.199570,129.993942 122.888924,129.993942 
z"/>
</svg>