<svg version="1.1" id="Layer_1" xmlns="http://www.w3.org/2000/svg" xmlns:xlink="http://www.w3.org/1999/xlink" x="0px" y="0px"
	 width="100%" viewBox="0 0 402 385" enable-background="new 0 0 402 385" xml:space="preserve">
<path fill="#000000" opacity="1.000000" stroke="none" 
	d="
M403.000000,140.000000 
	C403.000000,222.333328 403.000000,304.166656 403.000000,386.000000 
	C269.000031,386.000000 135.000076,386.000000 1.000087,386.000000 
	C1.000058,257.666718 1.000058,129.333450 1.000029,1.000139 
	C134.999924,1.000092 268.999847,1.000092 402.999878,1.000046 
	C403.000000,47.166668 403.000000,93.333336 403.000000,140.000000 
M81.355293,10.771162 
	C46.266335,20.763124 22.144949,52.438358 22.093620,89.025688 
	C21.999163,156.354095 22.044716,223.682739 22.071022,291.011261 
	C22.089598,338.549347 57.617695,374.248749 105.071655,374.297852 
	C172.066803,374.367218 239.062149,374.372833 306.057281,374.295685 
	C353.235260,374.241364 388.901215,338.508179 388.926575,291.382263 
	C388.962524,224.553711 388.957794,157.725113 388.928436,90.896561 
	C388.907562,43.404892 353.335358,7.747105 305.836182,7.700809 
	C239.007690,7.635672 172.178772,7.592622 105.350891,7.807964 
	C97.605865,7.832921 89.866325,9.561243 81.355293,10.771162 
z"/>
<path fill="#EED63B" opacity="1.000000" stroke="none" 
	d="
M81.739769,10.635504 
	C89.866325,9.561243 97.605865,7.832921 105.350891,7.807964 
	C172.178772,7.592622 239.007690,7.635672 305.836182,7.700809 
	C353.335358,7.747105 388.907562,43.404892 388.928436,90.896561 
	C388.957794,157.725113 388.962524,224.553711 388.926575,291.382263 
	C388.901215,338.508179 353.235260,374.241364 306.057281,374.295685 
	C239.062149,374.372833 172.066803,374.367218 105.071655,374.297852 
	C57.617695,374.248749 22.089598,338.549347 22.071022,291.011261 
	C22.044716,223.682739 21.999163,156.354095 22.093620,89.025688 
	C22.144949,52.438358 46.266335,20.763124 81.739769,10.635504 
M134.500000,269.999786 
	C172.154709,269.999786 209.809433,270.000031 247.464142,269.999664 
	C262.160645,269.999542 267.492767,264.627258 267.498596,249.744705 
	C267.510864,218.421310 267.504150,187.097931 267.496796,155.774536 
	C267.496429,154.277252 267.496185,152.772476 267.358154,151.283951 
	C266.463501,141.636093 260.791107,135.929382 251.124481,135.905396 
	C203.473419,135.787125 155.821716,135.791260 108.170677,135.918884 
	C98.264664,135.945419 92.040871,142.493347 92.023460,152.360138 
	C91.964073,186.016022 91.963890,219.672119 92.023148,253.328003 
	C92.041100,263.525574 98.382431,269.867554 108.508141,269.979950 
	C116.837807,270.072418 125.169312,269.999420 134.500000,269.999786 
M157.495651,67.996529 
	C153.644821,69.545494 149.809525,71.134514 145.939911,72.635056 
	C137.932861,75.740005 130.008270,78.676765 121.357918,80.176941 
	C102.229614,83.494247 91.595589,105.473770 100.101013,122.758705 
	C100.784683,124.148064 102.831154,125.746147 104.254669,125.756020 
	C118.404015,125.854195 132.555359,125.608131 146.706512,125.521812 
	C155.993439,125.465164 157.422058,124.494057 158.685898,115.227516 
	C159.170517,111.674248 158.895752,107.900116 158.295593,104.339798 
	C156.899078,96.055191 152.022873,89.701202 145.308075,84.040787 
	C156.818909,79.447266 167.660904,75.120651 178.466690,70.808487 
	C178.776581,71.464737 178.925919,71.629089 178.891617,71.732559 
	C178.631927,72.515800 178.336624,73.287254 178.051651,74.062088 
	C171.915848,90.745239 173.944595,106.328262 184.154129,120.919334 
	C186.435974,124.180450 188.974777,125.641747 193.177124,125.624603 
	C214.152451,125.539032 235.129608,125.921440 256.105164,125.850876 
	C257.946106,125.844681 260.264404,124.145615 261.543274,122.569397 
	C276.380646,104.282532 276.111877,77.854080 261.082886,60.494862 
	C244.950516,41.861176 219.221130,37.690605 198.210388,50.064346 
	C192.953674,53.160152 187.356323,55.731674 181.753769,58.172955 
	C173.993530,61.554432 166.080292,64.584801 157.495651,67.996529 
M318.999298,195.500000 
	C318.999237,178.169113 319.101624,160.836899 318.878418,143.508881 
	C318.848175,141.160721 317.702911,137.420334 316.148102,136.850433 
	C314.153961,136.119492 310.665100,137.260544 308.788513,138.786133 
	C299.230804,146.556259 289.908325,154.624054 280.709290,162.818695 
	C279.220245,164.145157 277.970245,166.626022 277.953949,168.584457 
	C277.764313,191.413025 277.753815,214.244446 277.964264,237.072632 
	C277.983521,239.164398 279.348541,241.802124 280.944611,243.228577 
	C290.007385,251.328369 299.224884,259.266724 308.655121,266.933624 
	C310.523956,268.453003 314.187744,269.808105 315.866882,268.956848 
	C317.634003,268.061005 318.844299,264.436401 318.869324,261.989502 
	C319.092407,240.161514 318.999298,218.330276 318.999298,195.500000 
M190.387650,280.869263 
	C181.810257,279.746246 173.793671,281.053009 166.819519,286.521057 
	C155.800964,295.160156 152.474380,310.528687 158.874786,322.919525 
	C165.426743,335.603760 179.513397,341.537903 193.550201,337.526886 
	C204.517868,334.392883 212.913223,324.444092 212.636856,314.574310 
	C209.839462,314.574310 207.014038,314.743988 204.217468,314.532410 
	C200.515152,314.252289 197.704300,314.608246 195.950958,318.783447 
	C195.054520,320.918091 192.325119,322.728302 190.010925,323.737701 
	C183.408646,326.617401 176.018646,323.403046 172.927948,316.754089 
	C169.397644,309.159424 171.960602,299.864136 178.613159,296.135193 
	C185.168472,292.460724 192.510590,294.493988 196.846420,301.078400 
	C197.580505,302.193207 198.682617,303.791229 199.706711,303.863556 
	C204.091873,304.173279 208.511459,303.995575 213.341522,303.995575 
	C210.508987,291.217773 203.244705,283.780548 190.387650,280.869263 
M223.664200,282.008026 
	C223.029053,282.741180 221.843628,283.471161 221.839340,284.207977 
	C221.735916,301.965546 221.758743,319.723785 221.758743,337.626190 
	C226.978943,337.626190 231.828674,337.626190 237.123688,337.626190 
	C237.123688,331.018250 237.123688,324.781952 237.123688,317.977234 
	C243.267288,317.977234 248.976059,317.977234 254.531631,317.977234 
	C254.531631,313.324646 254.531631,309.264435 254.531631,304.725220 
	C248.449387,304.725220 242.720535,304.725220 237.099182,304.725220 
	C237.099182,301.614258 237.099182,298.998169 237.099182,295.751892 
	C243.810776,295.751892 250.339600,295.751892 256.736786,295.751892 
	C256.736786,290.848297 256.736786,286.587372 256.736786,281.998962 
	C245.859818,281.998962 235.249435,281.998962 223.664200,282.008026 
M122.906723,322.496704 
	C122.906723,327.583893 122.906723,332.671112 122.906723,337.698181 
	C128.306274,337.698181 133.045425,337.698181 138.186829,337.698181 
	C138.186829,323.650055 138.186829,309.902100 138.186829,295.644012 
	C143.331146,295.644012 148.074524,295.644012 152.868256,295.644012 
	C152.868256,290.871094 152.868256,286.621246 152.868256,282.342804 
	C137.721161,282.342804 122.841858,282.342804 108.173607,282.342804 
	C108.173607,286.940186 108.173607,291.185242 108.173607,295.993225 
	C113.246895,295.993225 117.962685,295.993225 122.906723,295.993225 
	C122.906723,304.882782 122.906723,313.190491 122.906723,322.496704 
z"/>
<path fill="#000000" opacity="1.000000" stroke="none" 
	d="
M134.000000,269.999786 
	C125.169312,269.999420 116.837807,270.072418 108.508141,269.979950 
	C98.382431,269.867554 92.041100,263.525574 92.023148,253.328003 
	C91.963890,219.672119 91.964073,186.016022 92.023460,152.360138 
	C92.040871,142.493347 98.264664,135.945419 108.170677,135.918884 
	C155.821716,135.791260 203.473419,135.787125 251.124481,135.905396 
	C260.791107,135.929382 266.463501,141.636093 267.358154,151.283951 
	C267.496185,152.772476 267.496429,154.277252 267.496796,155.774536 
	C267.504150,187.097931 267.510864,218.421310 267.498596,249.744705 
	C267.492767,264.627258 262.160645,269.999542 247.464142,269.999664 
	C209.809433,270.000031 172.154709,269.999786 134.000000,269.999786 
M216.669952,167.497284 
	C214.873016,174.285187 216.487595,180.205765 222.077301,184.399979 
	C227.293976,188.314285 233.310898,188.436600 239.000717,185.354782 
	C244.686340,182.275238 246.854568,177.005051 246.494507,170.696045 
	C246.089920,163.606842 241.096130,158.032272 234.313339,156.907028 
	C226.206161,155.562057 220.472305,158.789536 216.669952,167.497284 
z"/>
<path fill="#000000" opacity="1.000000" stroke="none" 
	d="
M157.864105,67.881027 
	C166.080292,64.584801 173.993530,61.554432 181.753769,58.172955 
	C187.356323,55.731674 192.953674,53.160152 198.210388,50.064346 
	C219.221130,37.690605 244.950516,41.861176 261.082886,60.494862 
	C276.111877,77.854080 276.380646,104.282532 261.543274,122.569397 
	C260.264404,124.145615 257.946106,125.844681 256.105164,125.850876 
	C235.129608,125.921440 214.152451,125.539032 193.177124,125.624603 
	C188.974777,125.641747 186.435974,124.180450 184.154129,120.919334 
	C173.944595,106.328262 171.915848,90.745239 178.051651,74.062088 
	C178.336624,73.287254 178.631927,72.515800 178.891617,71.732559 
	C178.925919,71.629089 178.776581,71.464737 178.466690,70.808487 
	C167.660904,75.120651 156.818909,79.447266 145.308075,84.040787 
	C152.022873,89.701202 156.899078,96.055191 158.295593,104.339798 
	C158.895752,107.900116 159.170517,111.674248 158.685898,115.227516 
	C157.422058,124.494057 155.993439,125.465164 146.706512,125.521812 
	C132.555359,125.608131 118.404015,125.854195 104.254669,125.756020 
	C102.831154,125.746147 100.784683,124.148064 100.101013,122.758705 
	C91.595589,105.473770 102.229614,83.494247 121.357918,80.176941 
	C130.008270,78.676765 137.932861,75.740005 145.939911,72.635056 
	C149.809525,71.134514 153.644821,69.545494 157.864105,67.881027 
z"/>
<path fill="#000000" opacity="1.000000" stroke="none" 
	d="
M318.999298,196.000000 
	C318.999298,218.330276 319.092407,240.161514 318.869324,261.989502 
	C318.844299,264.436401 317.634003,268.061005 315.866882,268.956848 
	C314.187744,269.808105 310.523956,268.453003 308.655121,266.933624 
	C299.224884,259.266724 290.007385,251.328369 280.944611,243.228577 
	C279.348541,241.802124 277.983521,239.164398 277.964264,237.072632 
	C277.753815,214.244446 277.764313,191.413025 277.953949,168.584457 
	C277.970245,166.626022 279.220245,164.145157 280.709290,162.818695 
	C289.908325,154.624054 299.230804,146.556259 308.788513,138.786133 
	C310.665100,137.260544 314.153961,136.119492 316.148102,136.850433 
	C317.702911,137.420334 318.848175,141.160721 318.878418,143.508881 
	C319.101624,160.836899 318.999237,178.169113 318.999298,196.000000 
z"/>
<path fill="#000000" opacity="1.000000" stroke="none" 
	d="
M190.803009,280.908264 
	C203.244705,283.780548 210.508987,291.217773 213.341522,303.995575 
	C208.511459,303.995575 204.091873,304.173279 199.706711,303.863556 
	C198.682617,303.791229 197.580505,302.193207 196.846420,301.078400 
	C192.510590,294.493988 185.168472,292.460724 178.613159,296.135193 
	C171.960602,299.864136 169.397644,309.159424 172.927948,316.754089 
	C176.018646,323.403046 183.408646,326.617401 190.010925,323.737701 
	C192.325119,322.728302 195.054520,320.918091 195.950958,318.783447 
	C197.704300,314.608246 200.515152,314.252289 204.217468,314.532410 
	C207.014038,314.743988 209.839462,314.574310 212.636856,314.574310 
	C212.913223,324.444092 204.517868,334.392883 193.550201,337.526886 
	C179.513397,341.537903 165.426743,335.603760 158.874786,322.919525 
	C152.474380,310.528687 155.800964,295.160156 166.819519,286.521057 
	C173.793671,281.053009 181.810257,279.746246 190.803009,280.908264 
z"/>
<path fill="#000000" opacity="1.000000" stroke="none" 
	d="
M224.151627,282.003479 
	C235.249435,281.998962 245.859818,281.998962 256.736786,281.998962 
	C256.736786,286.587372 256.736786,290.848297 256.736786,295.751892 
	C250.339600,295.751892 243.810776,295.751892 237.099182,295.751892 
	C237.099182,298.998169 237.099182,301.614258 237.099182,304.725220 
	C242.720535,304.725220 248.449387,304.725220 254.531631,304.725220 
	C254.531631,309.264435 254.531631,313.324646 254.531631,317.977234 
	C248.976059,317.977234 243.267288,317.977234 237.123688,317.977234 
	C237.123688,324.781952 237.123688,331.018250 237.123688,337.626190 
	C231.828674,337.626190 226.978943,337.626190 221.758743,337.626190 
	C221.758743,319.723785 221.735916,301.965546 221.839340,284.207977 
	C221.843628,283.471161 223.029053,282.741180 224.151627,282.003479 
z"/>
<path fill="#000000" opacity="1.000000" stroke="none" 
	d="
M122.906723,321.997437 
	C122.906723,313.190491 122.906723,304.882782 122.906723,295.993225 
	C117.962685,295.993225 113.246895,295.993225 108.173607,295.993225 
	C108.173607,291.185242 108.173607,286.940186 108.173607,282.342804 
	C122.841858,282.342804 137.721161,282.342804 152.868256,282.342804 
	C152.868256,286.621246 152.868256,290.871094 152.868256,295.644012 
	C148.074524,295.644012 143.331146,295.644012 138.186829,295.644012 
	C138.186829,309.902100 138.186829,323.650055 138.186829,337.698181 
	C133.045425,337.698181 128.306274,337.698181 122.906723,337.698181 
	C122.906723,332.671112 122.906723,327.583893 122.906723,321.997437 
z"/>
<path fill="#EED63B" opacity="1.000000" stroke="none" 
	d="
M216.776215,167.107910 
	C220.472305,158.789536 226.206161,155.562057 234.313339,156.907028 
	C241.096130,158.032272 246.089920,163.606842 246.494507,170.696045 
	C246.854568,177.005051 244.686340,182.275238 239.000717,185.354782 
	C233.310898,188.436600 227.293976,188.314285 222.077301,184.399979 
	C216.487595,180.205765 214.873016,174.285187 216.776215,167.107910 
M232.306213,167.014374 
	C227.479218,167.542297 225.039520,170.046463 226.665421,173.366776 
	C227.449570,174.968140 229.669357,176.614166 231.381317,176.781036 
	C232.795074,176.918839 235.734863,174.841644 235.683594,173.867813 
	C235.563965,171.595932 234.050812,169.397415 232.306213,167.014374 
z"/>
<path fill="#000000" opacity="1.000000" stroke="none" 
	d="
M232.704163,167.091782 
	C234.050812,169.397415 235.563965,171.595932 235.683594,173.867813 
	C235.734863,174.841644 232.795074,176.918839 231.381317,176.781036 
	C229.669357,176.614166 227.449570,174.968140 226.665421,173.366776 
	C225.039520,170.046463 227.479218,167.542297 232.704163,167.091782 
z"/>
</svg>