<svg version="1.1" id="Layer_1" xmlns="http://www.w3.org/2000/svg" xmlns:xlink="http://www.w3.org/1999/xlink" x="0px" y="0px"
	 width="100%" viewBox="0 0 200 267" enable-background="new 0 0 200 267" xml:space="preserve">
<path fill="#000000" opacity="1.000000" stroke="none" 
	d="
M201.000000,102.000000 
	C201.000000,157.637131 201.000000,212.774246 201.000000,267.955688 
	C134.398605,267.955688 67.797157,267.955688 1.097860,267.955688 
	C1.097860,179.112991 1.097860,90.225845 1.097860,1.169348 
	C67.666321,1.169348 134.333115,1.169348 201.000000,1.169348 
	C201.000000,34.535957 201.000000,68.017982 201.000000,102.000000 
M118.359688,254.066910 
	C134.163895,258.121613 142.349060,248.063110 142.224854,233.754623 
	C141.701233,173.428970 142.003281,113.096153 142.003281,52.765961 
	C142.003281,50.980652 142.003296,49.195339 142.003296,47.579647 
	C142.749420,47.285114 143.040863,47.070812 143.333511,47.069138 
	C149.665756,47.032906 155.998138,47.010246 162.330490,47.005852 
	C170.502350,47.000179 171.995407,48.464184 171.995697,56.470470 
	C171.997635,110.800980 171.996704,165.131485 171.996719,219.461990 
	C171.996719,221.230179 171.996704,222.998352 171.996704,224.667023 
	C175.680878,224.667023 178.744812,224.667023 181.801773,224.667023 
	C181.890610,223.850052 181.989594,223.364410 181.989670,222.878769 
	C181.998749,166.548386 182.031845,110.217957 181.973862,53.887627 
	C181.963364,43.684750 175.212311,37.109192 164.992783,37.011429 
	C157.389816,36.938702 149.785568,36.997105 141.999557,36.997105 
	C141.999557,34.714199 142.049484,33.059452 141.991455,31.408497 
	C141.620499,20.856611 133.416290,13.781134 122.967484,15.189530 
	C94.265541,19.058273 65.570961,22.982430 36.883076,26.954054 
	C27.477564,28.256176 22.029844,34.427277 22.022161,43.964722 
	C21.973301,104.628189 21.974281,165.291733 22.020683,225.955215 
	C22.028114,235.671204 27.602192,241.765915 37.320240,243.091446 
	C64.034492,246.735184 90.750954,250.362701 118.359688,254.066910 
z"/>
<path fill="#ECD43B" opacity="1.000000" stroke="none" 
	d="
M117.913116,254.031769 
	C90.750954,250.362701 64.034492,246.735184 37.320240,243.091446 
	C27.602192,241.765915 22.028114,235.671204 22.020683,225.955215 
	C21.974281,165.291733 21.973301,104.628189 22.022161,43.964722 
	C22.029844,34.427277 27.477564,28.256176 36.883076,26.954054 
	C65.570961,22.982430 94.265541,19.058273 122.967484,15.189530 
	C133.416290,13.781134 141.620499,20.856611 141.991455,31.408497 
	C142.049484,33.059452 141.999557,34.714199 141.999557,36.997105 
	C149.785568,36.997105 157.389816,36.938702 164.992783,37.011429 
	C175.212311,37.109192 181.963364,43.684750 181.973862,53.887627 
	C182.031845,110.217957 181.998749,166.548386 181.989670,222.878769 
	C181.989594,223.364410 181.890610,223.850052 181.801773,224.667023 
	C178.744812,224.667023 175.680878,224.667023 171.996704,224.667023 
	C171.996704,222.998352 171.996719,221.230179 171.996719,219.461990 
	C171.996704,165.131485 171.997635,110.800980 171.995697,56.470470 
	C171.995407,48.464184 170.502350,47.000179 162.330490,47.005852 
	C155.998138,47.010246 149.665756,47.032906 143.333511,47.069138 
	C143.040863,47.070812 142.749420,47.285114 142.003296,47.579647 
	C142.003296,49.195339 142.003281,50.980652 142.003281,52.765961 
	C142.003281,113.096153 141.701233,173.428970 142.224854,233.754623 
	C142.349060,248.063110 134.163895,258.121613 117.913116,254.031769 
M131.996796,52.500046 
	C131.996628,45.835835 132.061203,39.170803 131.976501,32.507668 
	C131.904526,26.846073 129.282959,24.434961 123.849144,25.169952 
	C95.653503,28.983759 67.462601,32.833584 39.282196,36.758148 
	C33.259743,37.596867 32.010662,39.210873 32.009598,45.280327 
	C31.999113,105.091934 31.999218,164.903534 32.009491,224.715149 
	C32.010521,230.727173 33.323479,232.378326 39.305317,233.205338 
	C66.666618,236.988190 94.047791,240.627930 121.404335,244.444458 
	C129.767670,245.611221 131.995193,243.890701 131.995529,235.433929 
	C131.997910,174.789291 131.996796,114.144653 131.996796,52.500046 
z"/>
<path fill="#000000" opacity="1.000000" stroke="none" 
	d="
M131.996796,53.000031 
	C131.996796,114.144653 131.997910,174.789291 131.995529,235.433929 
	C131.995193,243.890701 129.767670,245.611221 121.404335,244.444458 
	C94.047791,240.627930 66.666618,236.988190 39.305317,233.205338 
	C33.323479,232.378326 32.010521,230.727173 32.009491,224.715149 
	C31.999218,164.903534 31.999113,105.091934 32.009598,45.280327 
	C32.010662,39.210873 33.259743,37.596867 39.282196,36.758148 
	C67.462601,32.833584 95.653503,28.983759 123.849144,25.169952 
	C129.282959,24.434961 131.904526,26.846073 131.976501,32.507668 
	C132.061203,39.170803 131.996628,45.835835 131.996796,53.000031 
M115.506577,154.339005 
	C120.077225,152.805603 121.978615,149.344345 121.955940,144.816574 
	C121.936424,140.919922 120.299629,137.747681 116.564598,136.042145 
	C112.177353,134.038803 107.991669,134.607086 104.679939,138.025620 
	C101.503304,141.304703 101.060883,145.479279 103.055984,149.557922 
	C105.442818,154.437393 109.701538,155.623413 115.506577,154.339005 
z"/>
<path fill="#E7CF39" opacity="1.000000" stroke="none" 
	d="
M115.137695,154.499313 
	C109.701538,155.623413 105.442818,154.437393 103.055984,149.557922 
	C101.060883,145.479279 101.503304,141.304703 104.679939,138.025620 
	C107.991669,134.607086 112.177353,134.038803 116.564598,136.042145 
	C120.299629,137.747681 121.936424,140.919922 121.955940,144.816574 
	C121.978615,149.344345 120.077225,152.805603 115.137695,154.499313 
z"/>
</svg>