<svg version="1.1" id="Layer_1" xmlns="http://www.w3.org/2000/svg" xmlns:xlink="http://www.w3.org/1999/xlink" x="0px" y="0px"
	 width="100%" viewBox="0 0 250 140" enable-background="new 0 0 250 140" xml:space="preserve">
<path fill="#010100" opacity="1.000000" stroke="none" 
	d="
M186.000000,141.000000 
	C124.000000,141.000000 62.500008,141.000000 1.000008,141.000000 
	C1.000005,94.333344 1.000005,47.666679 1.000003,1.000015 
	C84.333321,1.000010 167.666641,1.000010 250.999969,1.000005 
	C250.999985,47.666653 250.999985,94.333305 251.000000,140.999969 
	C229.500000,141.000000 208.000000,141.000000 186.000000,141.000000 
M89.010216,109.640053 
	C87.753250,114.975357 86.496277,120.310661 85.229187,125.688889 
	C115.002068,125.688889 143.421463,125.688889 172.073868,125.688889 
	C171.898438,112.860199 167.271652,102.425560 158.195724,94.258987 
	C135.800873,74.107979 103.115555,81.152168 89.010216,109.640053 
M33.035252,84.580116 
	C26.765982,92.497284 23.358133,101.369301 23.603350,111.836037 
	C42.951195,111.836037 61.884968,111.866249 80.817863,111.751419 
	C81.818802,111.745346 83.393326,110.721581 83.719795,109.817383 
	C87.161690,100.284714 93.343880,92.862610 101.221802,86.786385 
	C87.268707,65.299492 52.771679,61.251190 33.035252,84.580116 
M197.500031,111.840012 
	C208.496597,111.839668 219.493240,111.815239 230.489639,111.857513 
	C232.951843,111.866982 234.587570,111.558327 234.498795,108.351852 
	C234.046539,92.021164 220.680466,75.429848 203.714386,70.398491 
	C186.208908,65.207184 166.385727,71.969864 156.701080,86.644730 
	C164.639084,92.869568 171.018143,100.347267 174.423874,110.107277 
	C174.733093,110.993416 176.758514,111.728760 178.008057,111.762924 
	C184.168198,111.931396 190.335419,111.839828 197.500031,111.840012 
M43.101990,44.858154 
	C43.669247,46.416637 44.144817,48.016006 44.818615,49.526978 
	C49.266300,59.500805 59.681324,65.055931 70.474579,63.259380 
	C81.546097,61.416512 89.657845,52.594513 90.469872,41.513351 
	C91.263268,30.686436 84.686150,20.572506 74.421417,17.118406 
	C57.660709,11.478397 39.927910,24.960766 43.101990,44.858154 
M191.497406,63.797112 
	C192.813965,63.603207 194.134399,63.432419 195.446457,63.211773 
	C206.831787,61.297173 214.985687,51.881577 215.257751,40.347012 
	C215.531219,28.753298 207.993134,19.030666 196.681427,16.387211 
	C185.699738,13.820884 174.039307,19.567604 169.508362,30.016548 
	C162.636215,45.864632 173.558563,62.917442 191.497406,63.797112 
M113.353615,72.192680 
	C121.203224,78.557327 129.947006,79.967026 139.054703,75.761688 
	C147.548538,71.839798 152.350479,64.792610 152.952332,55.349598 
	C153.638306,44.586735 146.501465,34.473515 136.320526,31.277414 
	C125.758736,27.961750 114.298615,32.241135 108.530525,41.654621 
	C102.509895,51.480244 104.123688,62.732841 113.353615,72.192680 
z"/>
<path fill="#ECD53B" opacity="1.000000" stroke="none" 
	d="
M89.139420,109.275879 
	C103.115555,81.152168 135.800873,74.107979 158.195724,94.258987 
	C167.271652,102.425560 171.898438,112.860199 172.073868,125.688889 
	C143.421463,125.688889 115.002068,125.688889 85.229187,125.688889 
	C86.496277,120.310661 87.753250,114.975357 89.139420,109.275879 
z"/>
<path fill="#EBD43A" opacity="1.000000" stroke="none" 
	d="
M33.256027,84.299606 
	C52.771679,61.251190 87.268707,65.299492 101.221802,86.786385 
	C93.343880,92.862610 87.161690,100.284714 83.719795,109.817383 
	C83.393326,110.721581 81.818802,111.745346 80.817863,111.751419 
	C61.884968,111.866249 42.951195,111.836037 23.603350,111.836037 
	C23.358133,101.369301 26.765982,92.497284 33.256027,84.299606 
z"/>
<path fill="#EBD33A" opacity="1.000000" stroke="none" 
	d="
M197.000092,111.840012 
	C190.335419,111.839828 184.168198,111.931396 178.008057,111.762924 
	C176.758514,111.728760 174.733093,110.993416 174.423874,110.107277 
	C171.018143,100.347267 164.639084,92.869568 156.701080,86.644730 
	C166.385727,71.969864 186.208908,65.207184 203.714386,70.398491 
	C220.680466,75.429848 234.046539,92.021164 234.498795,108.351852 
	C234.587570,111.558327 232.951843,111.866982 230.489639,111.857513 
	C219.493240,111.815239 208.496597,111.839668 197.000092,111.840012 
z"/>
<path fill="#EBD43A" opacity="1.000000" stroke="none" 
	d="
M43.050171,44.423050 
	C39.927910,24.960766 57.660709,11.478397 74.421417,17.118406 
	C84.686150,20.572506 91.263268,30.686436 90.469872,41.513351 
	C89.657845,52.594513 81.546097,61.416512 70.474579,63.259380 
	C59.681324,65.055931 49.266300,59.500805 44.818615,49.526978 
	C44.144817,48.016006 43.669247,46.416637 43.050171,44.423050 
z"/>
<path fill="#EBD43A" opacity="1.000000" stroke="none" 
	d="
M191.079010,63.758438 
	C173.558563,62.917442 162.636215,45.864632 169.508362,30.016548 
	C174.039307,19.567604 185.699738,13.820884 196.681427,16.387211 
	C207.993134,19.030666 215.531219,28.753298 215.257751,40.347012 
	C214.985687,51.881577 206.831787,61.297173 195.446457,63.211773 
	C194.134399,63.432419 192.813965,63.603207 191.079010,63.758438 
z"/>
<path fill="#ECD43A" opacity="1.000000" stroke="none" 
	d="
M113.096008,71.942673 
	C104.123688,62.732841 102.509895,51.480244 108.530525,41.654621 
	C114.298615,32.241135 125.758736,27.961750 136.320526,31.277414 
	C146.501465,34.473515 153.638306,44.586735 152.952332,55.349598 
	C152.350479,64.792610 147.548538,71.839798 139.054703,75.761688 
	C129.947006,79.967026 121.203224,78.557327 113.096008,71.942673 
z"/>
</svg>