<svg version="1.1" id="Layer_1" xmlns="http://www.w3.org/2000/svg" xmlns:xlink="http://www.w3.org/1999/xlink" x="0px" y="0px"
	 width="100%" viewBox="0 0 1142 318" enable-background="new 0 0 1142 318" xml:space="preserve">
<path fill="#000000" opacity="1.000000" stroke="none" 
	d="
M747.000000,319.000000 
	C498.000000,319.000000 249.500000,319.000000 1.000000,319.000000 
	C1.000000,213.000000 1.000000,107.000000 1.000000,1.000000 
	C381.666656,1.000000 762.333313,1.000000 1143.000000,1.000000 
	C1143.000000,107.000000 1143.000000,213.000000 1143.000000,319.000000 
	C1011.166687,319.000000 879.333313,319.000000 747.000000,319.000000 
M102.499832,307.322266 
	C147.326019,307.322266 192.152802,307.190033 236.978088,307.390869 
	C253.647400,307.465515 269.929718,306.207672 283.346375,295.111206 
	C290.634399,289.083527 298.174011,282.693298 303.368622,274.966400 
	C310.189331,264.820709 311.858978,252.429962 311.888580,240.213257 
	C312.010956,189.721420 312.054077,139.228592 311.818939,88.737556 
	C311.783020,81.020065 309.942291,73.326691 309.268127,65.593231 
	C307.830872,49.106083 296.797028,38.674358 285.161377,29.433937 
	C273.702118,20.333628 259.786774,16.592060 244.916702,16.634811 
	C201.423828,16.759846 157.930389,16.667845 114.437172,16.684666 
	C102.606674,16.689240 90.774017,16.654932 78.946373,16.864721 
	C68.466354,17.050608 58.267090,19.817780 49.731403,25.402634 
	C40.302990,31.571602 31.246208,38.442429 25.654163,49.287491 
	C20.457699,59.365379 16.226765,69.518700 16.175373,80.733963 
	C15.927210,134.891052 15.718689,189.054214 16.396107,243.203949 
	C16.511700,252.444046 19.920427,262.119446 23.804850,270.688446 
	C27.041031,277.827423 32.505325,284.375061 38.254303,289.849213 
	C45.272621,296.532043 53.669090,301.338104 63.345791,304.277771 
	C75.997978,308.121399 88.742928,306.944916 102.499832,307.322266 
M977.134766,248.519836 
	C977.134766,256.941559 977.134766,265.363251 977.134766,273.761322 
	C984.432434,273.761322 991.027100,273.761322 997.856445,273.761322 
	C997.856445,259.906677 998.413330,246.264023 997.683838,232.690491 
	C997.078308,221.423950 988.088013,213.672531 977.195740,213.633652 
	C970.127319,213.608414 964.090576,216.425049 959.223267,221.436478 
	C947.166504,211.065277 938.336548,210.961243 925.383362,220.783661 
	C922.185730,214.523376 919.343140,213.673904 908.399048,215.736572 
	C908.399048,235.090042 908.399048,254.452438 908.399048,273.699188 
	C915.343872,273.699188 921.927612,273.699188 928.873352,273.699188 
	C928.873352,263.104370 928.817627,252.812347 928.892090,242.521255 
	C928.945068,235.200912 931.790588,231.345993 936.793274,231.486603 
	C941.004578,231.604965 943.005432,234.981064 943.034973,242.175446 
	C943.067139,250.001251 943.042542,257.827301 943.042603,265.653229 
	C943.042664,268.397552 943.042542,271.141846 943.042542,273.757263 
	C950.090515,273.757263 956.361511,273.757263 962.554077,273.757263 
	C962.746765,273.218811 962.944275,272.923126 962.945312,272.626770 
	C962.977234,263.469391 962.913635,254.310822 963.051392,245.155228 
	C963.093506,242.359344 963.455750,239.520752 964.072632,236.792450 
	C964.939453,232.959000 967.930725,231.381531 971.530029,231.543991 
	C975.376953,231.717636 976.868347,234.544327 977.045288,238.041199 
	C977.204895,241.197449 977.114746,244.366348 977.134766,248.519836 
M544.872375,250.974686 
	C544.904541,247.812531 545.023743,244.648453 544.953552,241.488571 
	C544.666443,228.583313 534.616577,216.579422 522.035461,214.203430 
	C512.917908,212.481506 504.292816,213.659866 496.835968,219.309311 
	C492.336884,211.779495 485.791412,216.522034 480.254150,215.049255 
	C480.254150,242.271790 480.254150,268.688263 480.254150,295.394318 
	C487.023163,295.394318 493.578674,295.394318 500.611389,295.394318 
	C500.611389,287.874084 500.611389,280.625977 500.611389,272.747711 
	C507.967194,276.634277 515.234070,276.988007 522.427551,275.292114 
	C534.815125,272.371643 541.814758,263.949432 544.872375,250.974686 
M689.959412,220.464813 
	C685.731201,231.582153 685.858093,242.914444 689.217957,254.082687 
	C692.730652,265.758667 700.522705,273.835083 712.795227,275.668854 
	C725.585144,277.579895 736.923462,274.344696 744.125183,262.337189 
	C751.678345,249.743576 751.899536,236.261963 748.014709,222.674271 
	C744.000488,208.633957 733.924377,200.797150 720.418945,200.132706 
	C706.306641,199.438400 695.978760,206.106430 689.959412,220.464813 
M622.164429,213.691803 
	C613.793030,229.049850 613.419800,244.799423 621.023621,260.351105 
	C627.046387,272.669159 637.962158,277.020844 651.191467,275.908569 
	C662.852783,274.928131 671.132080,268.664032 675.468628,258.033508 
	C680.920288,244.669708 681.030334,231.023743 675.115601,217.629791 
	C670.390625,206.929932 661.911560,201.112991 650.436462,200.280670 
	C639.001892,199.451324 629.204285,203.023468 622.164429,213.691803 
M1013.561768,265.964813 
	C1023.634399,276.553925 1035.848267,278.298645 1049.204712,274.162567 
	C1059.035522,271.118286 1065.398315,264.478790 1068.333862,254.040527 
	C1063.412231,254.040527 1059.087158,254.065094 1054.762451,254.033157 
	C1050.971069,254.005157 1047.600098,254.040710 1044.316650,257.120972 
	C1041.033691,260.200623 1036.105347,260.277435 1032.184937,257.807434 
	C1029.736450,256.264893 1028.124878,253.394363 1026.137695,251.119781 
	C1026.507324,250.702454 1026.876831,250.285141 1027.246460,249.867828 
	C1041.201050,249.867828 1055.155640,249.867828 1069.030151,249.867828 
	C1072.012207,236.126801 1065.001831,222.489410 1052.068481,216.390396 
	C1038.953003,210.205490 1020.806396,213.991745 1012.543213,224.637253 
	C1003.031921,236.890656 1003.245789,253.590347 1013.561768,265.964813 
M408.161957,231.823944 
	C404.793671,240.871719 404.395386,250.040421 408.744385,258.729004 
	C415.309692,271.845337 426.723816,276.533142 440.894531,276.010193 
	C465.591980,275.098877 478.410828,250.880661 468.068481,230.063339 
	C462.071564,217.992584 451.090424,213.465958 438.483643,213.480789 
	C425.403229,213.496185 414.626495,218.667816 408.161957,231.823944 
M828.193420,229.059921 
	C820.788452,229.059921 813.383484,229.059921 806.188843,229.059921 
	C806.188843,224.835602 806.188843,221.406891 806.188843,217.418808 
	C815.220337,217.418808 823.940674,217.418808 832.612854,217.418808 
	C832.612854,210.742020 832.612854,204.640839 832.612854,198.387909 
	C816.341675,198.387909 800.326477,198.387909 784.397827,198.387909 
	C784.397827,223.762955 784.397827,248.789627 784.397827,273.705963 
	C791.673157,273.705963 798.587402,273.705963 805.992798,273.705963 
	C805.992798,265.026764 805.992798,256.638214 805.992798,247.782959 
	C814.211792,247.782959 821.942444,247.782959 830.342285,247.782959 
	C829.917664,241.244385 829.526184,235.216705 828.193420,229.059921 
M391.455475,198.037445 
	C374.045837,198.037445 356.636200,198.037445 339.352051,198.037445 
	C339.352051,204.933350 339.352051,211.158157 339.352051,217.900116 
	C346.095245,217.900116 352.487091,217.900116 359.280945,217.900116 
	C359.280945,236.832932 359.280945,255.238052 359.280945,273.747162 
	C366.617432,273.747162 373.524261,273.747162 381.013489,273.747162 
	C381.013489,254.954468 381.013489,236.417084 381.013489,217.411438 
	C388.178406,217.411438 394.763550,217.411438 401.689331,217.411438 
	C401.689331,213.795715 401.689301,210.653870 401.689301,207.512039 
	C401.689301,204.427444 401.689331,201.342865 401.689331,198.037445 
	C398.083771,198.037445 395.259796,198.037445 391.455475,198.037445 
M1125.376709,263.615540 
	C1129.782104,249.794174 1124.653809,240.990112 1110.500977,238.056305 
	C1106.612915,237.250336 1102.645752,236.672043 1098.895264,235.440414 
	C1097.609009,235.018051 1096.872681,232.921112 1095.885132,231.589279 
	C1097.205566,230.630249 1098.672852,228.734573 1099.814819,228.913574 
	C1101.974121,229.252045 1103.986206,230.712952 1105.977661,231.850845 
	C1106.822388,232.333588 1107.444092,233.746704 1108.194702,233.767990 
	C1113.979980,233.932083 1119.771973,233.858307 1125.635986,233.858307 
	C1125.635986,232.347458 1125.812744,231.328568 1125.607666,230.393341 
	C1124.083008,223.437286 1120.197998,218.554153 1113.418579,215.840851 
	C1104.096558,212.109894 1094.911499,212.690506 1085.938477,216.514282 
	C1078.976562,219.481049 1074.724976,227.280930 1075.570679,234.224136 
	C1076.742432,243.842606 1081.525635,248.704605 1091.889893,250.824753 
	C1095.442139,251.551407 1099.158325,251.879669 1102.468628,253.211960 
	C1104.056274,253.850937 1104.873657,256.404205 1106.039795,258.090515 
	C1104.092163,258.889374 1101.759766,260.771698 1100.281982,260.247040 
	C1097.711670,259.334595 1095.668823,256.936249 1092.817993,254.700592 
	C1087.650635,254.700592 1081.428833,254.700592 1074.036987,254.700592 
	C1075.480469,258.917206 1076.150146,262.728149 1077.976807,265.865509 
	C1083.716553,275.723724 1096.332764,277.305084 1108.319458,275.511414 
	C1115.496094,274.437500 1121.371094,270.889587 1125.376709,263.615540 
M604.697327,210.579453 
	C604.697327,207.804718 604.697327,205.029984 604.697327,202.271622 
	C594.120789,202.271622 584.203979,202.271622 574.380920,202.271622 
	C574.380920,207.945999 574.380920,213.327271 574.380920,219.121063 
	C577.865479,219.121063 580.954834,219.121063 584.511780,219.121063 
	C584.511780,237.626358 584.511780,255.703201 584.511780,273.721375 
	C591.428955,273.721375 597.852783,273.721375 604.697327,273.721375 
	C604.697327,252.807480 604.697327,232.184387 604.697327,210.579453 
M895.868591,250.500000 
	C895.868591,231.787735 895.868591,213.075455 895.868591,194.480194 
	C888.473633,194.480194 881.901550,194.480194 875.416748,194.480194 
	C875.416748,221.173279 875.416748,247.515930 875.416748,273.688599 
	C882.379028,273.688599 888.960205,273.688599 895.868591,273.688599 
	C895.868591,266.082550 895.868591,258.791260 895.868591,250.500000 
M842.039124,238.500031 
	C842.039124,250.239853 842.039124,261.979675 842.039124,273.768372 
	C849.231689,273.768372 855.810181,273.768372 862.533203,273.768372 
	C862.533203,254.190369 862.533203,234.854263 862.533203,215.405853 
	C855.628723,215.405853 849.062866,215.405853 842.039124,215.405853 
	C842.039124,222.947983 842.039124,230.224030 842.039124,238.500031 
M860.153442,208.873581 
	C861.053894,208.203537 862.704834,207.565414 862.734863,206.858353 
	C862.956543,201.645752 862.854736,196.419403 862.854736,191.333313 
	C855.505249,191.333313 848.947083,191.333313 842.437622,191.333313 
	C842.437622,197.316925 842.437622,202.991730 842.437622,208.877151 
	C848.297852,208.877151 853.753662,208.877151 860.153442,208.873581 
z"/>
<path fill="#EDD63B" opacity="1.000000" stroke="none" 
	d="
M101.999832,307.322266 
	C88.742928,306.944916 75.997978,308.121399 63.345791,304.277771 
	C53.669090,301.338104 45.272621,296.532043 38.254303,289.849213 
	C32.505325,284.375061 27.041031,277.827423 23.804850,270.688446 
	C19.920427,262.119446 16.511700,252.444046 16.396107,243.203949 
	C15.718689,189.054214 15.927210,134.891052 16.175373,80.733963 
	C16.226765,69.518700 20.457699,59.365379 25.654163,49.287491 
	C31.246208,38.442429 40.302990,31.571602 49.731403,25.402634 
	C58.267090,19.817780 68.466354,17.050608 78.946373,16.864721 
	C90.774017,16.654932 102.606674,16.689240 114.437172,16.684666 
	C157.930389,16.667845 201.423828,16.759846 244.916702,16.634811 
	C259.786774,16.592060 273.702118,20.333628 285.161377,29.433937 
	C296.797028,38.674358 307.830872,49.106083 309.268127,65.593231 
	C309.942291,73.326691 311.783020,81.020065 311.818939,88.737556 
	C312.054077,139.228592 312.010956,189.721420 311.888580,240.213257 
	C311.858978,252.429962 310.189331,264.820709 303.368622,274.966400 
	C298.174011,282.693298 290.634399,289.083527 283.346375,295.111206 
	C269.929718,306.207672 253.647400,307.465515 236.978088,307.390869 
	C192.152802,307.190033 147.326019,307.322266 101.999832,307.322266 
M89.704208,145.163651 
	C77.937904,145.282837 73.000000,150.291870 72.997704,162.135880 
	C72.992943,186.626343 73.318054,211.123032 72.846008,235.604385 
	C72.642563,246.155060 78.206322,251.549438 88.879921,251.532486 
	C125.199028,251.474808 161.518326,251.545563 197.837448,251.490845 
	C210.094528,251.472382 214.674988,246.936768 214.572327,234.997620 
	C214.364624,210.842148 214.261658,186.679977 214.615860,162.527908 
	C214.791672,150.539597 208.408890,145.065506 197.113449,145.111008 
	C161.627838,145.254013 126.141281,145.163651 89.704208,145.163651 
M205.774429,82.761047 
	C202.759842,80.471344 200.037323,77.546219 196.679672,76.002846 
	C182.761993,69.605453 169.261429,69.991150 156.423325,79.253708 
	C153.561218,81.318687 150.042908,82.539825 146.721085,83.889519 
	C136.960510,87.855370 127.198708,91.829102 117.333496,95.522202 
	C111.846962,97.576118 106.222916,100.245216 100.538612,100.583565 
	C88.737595,101.285988 82.638206,107.815918 78.688766,117.958023 
	C76.461929,123.676514 76.833733,129.025192 79.629250,134.245941 
	C80.292015,135.483688 81.929657,137.008484 83.134819,137.022430 
	C96.120491,137.172623 109.109749,137.079422 122.096581,136.928253 
	C123.045860,136.917221 124.583458,136.135452 124.830589,135.379547 
	C126.529480,130.183029 128.493332,124.782578 125.916573,119.446655 
	C123.328018,114.086311 120.115204,109.027428 117.030891,103.580215 
	C125.248604,100.765541 134.016281,97.762489 143.077728,94.658829 
	C139.257812,103.286606 139.193695,112.115891 140.901672,121.256790 
	C142.615112,130.426956 149.583435,137.001160 158.687988,137.001785 
	C173.009735,137.002762 187.348312,136.608353 201.644363,137.215118 
	C206.832886,137.435318 209.874191,135.915161 211.905273,131.667938 
	C213.995193,127.297668 216.662888,122.966545 217.588760,118.321487 
	C220.302277,104.708328 216.640686,92.832550 205.774429,82.761047 
M222.775955,167.831161 
	C222.517227,169.407608 222.038528,170.983353 222.033569,172.560593 
	C221.979553,189.714981 222.039383,206.869781 221.962173,224.023987 
	C221.948746,227.007309 222.197052,229.106461 225.517456,230.680954 
	C228.633286,232.158447 230.985016,235.208618 233.750534,237.472000 
	C238.900955,241.687271 243.973663,246.016663 249.336670,249.946518 
	C253.108261,252.710220 255.924210,251.110916 255.981659,246.486420 
	C256.056122,240.491577 256.000183,234.495117 256.000183,228.499344 
	C256.000214,202.517685 256.011902,176.535995 255.988419,150.554367 
	C255.984573,146.282654 253.309158,144.090622 250.284927,146.056854 
	C246.345230,148.618240 242.650192,151.573273 238.962555,154.500824 
	C233.700058,158.678619 228.539780,162.985168 222.775955,167.831161 
z"/>
<path fill="#EED63B" opacity="1.000000" stroke="none" 
	d="
M977.134766,248.024750 
	C977.114746,244.366348 977.204895,241.197449 977.045288,238.041199 
	C976.868347,234.544327 975.376953,231.717636 971.530029,231.543991 
	C967.930725,231.381531 964.939453,232.959000 964.072632,236.792450 
	C963.455750,239.520752 963.093506,242.359344 963.051392,245.155228 
	C962.913635,254.310822 962.977234,263.469391 962.945312,272.626770 
	C962.944275,272.923126 962.746765,273.218811 962.554077,273.757263 
	C956.361511,273.757263 950.090515,273.757263 943.042542,273.757263 
	C943.042542,271.141846 943.042664,268.397552 943.042603,265.653229 
	C943.042542,257.827301 943.067139,250.001251 943.034973,242.175446 
	C943.005432,234.981064 941.004578,231.604965 936.793274,231.486603 
	C931.790588,231.345993 928.945068,235.200912 928.892090,242.521255 
	C928.817627,252.812347 928.873352,263.104370 928.873352,273.699188 
	C921.927612,273.699188 915.343872,273.699188 908.399048,273.699188 
	C908.399048,254.452438 908.399048,235.090042 908.399048,215.736572 
	C919.343140,213.673904 922.185730,214.523376 925.383362,220.783661 
	C938.336548,210.961243 947.166504,211.065277 959.223267,221.436478 
	C964.090576,216.425049 970.127319,213.608414 977.195740,213.633652 
	C988.088013,213.672531 997.078308,221.423950 997.683838,232.690491 
	C998.413330,246.264023 997.856445,259.906677 997.856445,273.761322 
	C991.027100,273.761322 984.432434,273.761322 977.134766,273.761322 
	C977.134766,265.363251 977.134766,256.941559 977.134766,248.024750 
z"/>
<path fill="#EED63B" opacity="1.000000" stroke="none" 
	d="
M544.821228,251.413147 
	C541.814758,263.949432 534.815125,272.371643 522.427551,275.292114 
	C515.234070,276.988007 507.967194,276.634277 500.611389,272.747711 
	C500.611389,280.625977 500.611389,287.874084 500.611389,295.394318 
	C493.578674,295.394318 487.023163,295.394318 480.254150,295.394318 
	C480.254150,268.688263 480.254150,242.271790 480.254150,215.049255 
	C485.791412,216.522034 492.336884,211.779495 496.835968,219.309311 
	C504.292816,213.659866 512.917908,212.481506 522.035461,214.203430 
	C534.616577,216.579422 544.666443,228.583313 544.953552,241.488571 
	C545.023743,244.648453 544.904541,247.812531 544.821228,251.413147 
M513.109802,257.760864 
	C513.906616,257.543854 514.716003,257.364349 515.498291,257.103882 
	C521.100952,255.238480 524.325867,250.352188 524.110962,244.084213 
	C523.920044,238.511978 519.896179,233.461502 514.568970,232.107468 
	C509.528900,230.826401 503.475464,233.624756 500.779175,238.594070 
	C496.303497,246.842758 501.651489,257.644867 513.109802,257.760864 
z"/>
<path fill="#EED63B" opacity="1.000000" stroke="none" 
	d="
M690.035950,220.082214 
	C695.978760,206.106430 706.306641,199.438400 720.418945,200.132706 
	C733.924377,200.797150 744.000488,208.633957 748.014709,222.674271 
	C751.899536,236.261963 751.678345,249.743576 744.125183,262.337189 
	C736.923462,274.344696 725.585144,277.579895 712.795227,275.668854 
	C700.522705,273.835083 692.730652,265.758667 689.217957,254.082687 
	C685.858093,242.914444 685.731201,231.582153 690.035950,220.082214 
M722.988464,219.162796 
	C717.466309,217.048721 714.159851,217.929871 710.885559,222.388168 
	C705.808655,229.301010 706.085022,247.648941 711.369751,254.535934 
	C715.430664,259.828033 723.001770,259.667145 726.268677,253.856033 
	C728.003662,250.769913 729.361938,247.155334 729.701172,243.663803 
	C730.539429,235.035339 730.723145,226.332230 722.988464,219.162796 
z"/>
<path fill="#EED63B" opacity="1.000000" stroke="none" 
	d="
M622.396179,213.411072 
	C629.204285,203.023468 639.001892,199.451324 650.436462,200.280670 
	C661.911560,201.112991 670.390625,206.929932 675.115601,217.629791 
	C681.030334,231.023743 680.920288,244.669708 675.468628,258.033508 
	C671.132080,268.664032 662.852783,274.928131 651.191467,275.908569 
	C637.962158,277.020844 627.046387,272.669159 621.023621,260.351105 
	C613.419800,244.799423 613.793030,229.049850 622.396179,213.411072 
M648.286438,217.962753 
	C643.697632,217.731186 640.550903,220.182922 638.960571,224.061920 
	C635.114929,233.442001 635.051636,243.035324 639.023987,252.409088 
	C640.497620,255.886536 643.212708,258.195618 647.466370,258.205078 
	C651.886230,258.214935 654.622742,256.008667 656.306824,252.221924 
	C659.970398,243.984406 659.759583,235.539978 657.438904,227.024887 
	C656.227417,222.579773 653.673340,219.337952 648.286438,217.962753 
z"/>
<path fill="#EED63B" opacity="1.000000" stroke="none" 
	d="
M1013.313782,265.705750 
	C1003.245789,253.590347 1003.031921,236.890656 1012.543213,224.637253 
	C1020.806396,213.991745 1038.953003,210.205490 1052.068481,216.390396 
	C1065.001831,222.489410 1072.012207,236.126801 1069.030151,249.867828 
	C1055.155640,249.867828 1041.201050,249.867828 1027.246460,249.867828 
	C1026.876831,250.285141 1026.507324,250.702454 1026.137695,251.119781 
	C1028.124878,253.394363 1029.736450,256.264893 1032.184937,257.807434 
	C1036.105347,260.277435 1041.033691,260.200623 1044.316650,257.120972 
	C1047.600098,254.040710 1050.971069,254.005157 1054.762451,254.033157 
	C1059.087158,254.065094 1063.412231,254.040527 1068.333862,254.040527 
	C1065.398315,264.478790 1059.035522,271.118286 1049.204712,274.162567 
	C1035.848267,278.298645 1023.634399,276.553925 1013.313782,265.705750 
M1027.205322,237.107178 
	C1034.159546,237.535782 1041.113770,237.964386 1048.690674,238.431366 
	C1047.002319,232.619324 1043.493408,230.636398 1039.289062,230.065750 
	C1034.042480,229.353668 1029.925537,231.426361 1027.205322,237.107178 
z"/>
<path fill="#EED63B" opacity="1.000000" stroke="none" 
	d="
M408.361572,231.497040 
	C414.626495,218.667816 425.403229,213.496185 438.483643,213.480789 
	C451.090424,213.465958 462.071564,217.992584 468.068481,230.063339 
	C478.410828,250.880661 465.591980,275.098877 440.894531,276.010193 
	C426.723816,276.533142 415.309692,271.845337 408.744385,258.729004 
	C404.395386,250.040421 404.793671,240.871719 408.361572,231.497040 
M448.701813,251.962845 
	C451.352417,246.883835 451.498840,241.811844 448.124725,237.059601 
	C445.569946,233.461288 441.811401,231.970901 437.433044,232.520370 
	C431.828705,233.223679 427.782806,236.822708 426.960236,241.574265 
	C425.828979,248.109100 428.073273,253.392853 433.074127,255.967972 
	C438.193909,258.604370 443.571289,257.381836 448.701813,251.962845 
z"/>
<path fill="#EED63B" opacity="1.000000" stroke="none" 
	d="
M828.664062,229.124481 
	C829.526184,235.216705 829.917664,241.244385 830.342285,247.782959 
	C821.942444,247.782959 814.211792,247.782959 805.992798,247.782959 
	C805.992798,256.638214 805.992798,265.026764 805.992798,273.705963 
	C798.587402,273.705963 791.673157,273.705963 784.397827,273.705963 
	C784.397827,248.789627 784.397827,223.762955 784.397827,198.387909 
	C800.326477,198.387909 816.341675,198.387909 832.612854,198.387909 
	C832.612854,204.640839 832.612854,210.742020 832.612854,217.418808 
	C823.940674,217.418808 815.220337,217.418808 806.188843,217.418808 
	C806.188843,221.406891 806.188843,224.835602 806.188843,229.059921 
	C813.383484,229.059921 820.788452,229.059921 828.664062,229.124481 
z"/>
<path fill="#EED63B" opacity="1.000000" stroke="none" 
	d="
M391.945648,198.037445 
	C395.259796,198.037445 398.083771,198.037445 401.689331,198.037445 
	C401.689331,201.342865 401.689301,204.427444 401.689301,207.512039 
	C401.689301,210.653870 401.689331,213.795715 401.689331,217.411438 
	C394.763550,217.411438 388.178406,217.411438 381.013489,217.411438 
	C381.013489,236.417084 381.013489,254.954468 381.013489,273.747162 
	C373.524261,273.747162 366.617432,273.747162 359.280945,273.747162 
	C359.280945,255.238052 359.280945,236.832932 359.280945,217.900116 
	C352.487091,217.900116 346.095245,217.900116 339.352051,217.900116 
	C339.352051,211.158157 339.352051,204.933350 339.352051,198.037445 
	C356.636200,198.037445 374.045837,198.037445 391.945648,198.037445 
z"/>
<path fill="#EED63B" opacity="1.000000" stroke="none" 
	d="
M1125.200439,263.957916 
	C1121.371094,270.889587 1115.496094,274.437500 1108.319458,275.511414 
	C1096.332764,277.305084 1083.716553,275.723724 1077.976807,265.865509 
	C1076.150146,262.728149 1075.480469,258.917206 1074.036987,254.700592 
	C1081.428833,254.700592 1087.650635,254.700592 1092.817993,254.700592 
	C1095.668823,256.936249 1097.711670,259.334595 1100.281982,260.247040 
	C1101.759766,260.771698 1104.092163,258.889374 1106.039795,258.090515 
	C1104.873657,256.404205 1104.056274,253.850937 1102.468628,253.211960 
	C1099.158325,251.879669 1095.442139,251.551407 1091.889893,250.824753 
	C1081.525635,248.704605 1076.742432,243.842606 1075.570679,234.224136 
	C1074.724976,227.280930 1078.976562,219.481049 1085.938477,216.514282 
	C1094.911499,212.690506 1104.096558,212.109894 1113.418579,215.840851 
	C1120.197998,218.554153 1124.083008,223.437286 1125.607666,230.393341 
	C1125.812744,231.328568 1125.635986,232.347458 1125.635986,233.858307 
	C1119.771973,233.858307 1113.979980,233.932083 1108.194702,233.767990 
	C1107.444092,233.746704 1106.822388,232.333588 1105.977661,231.850845 
	C1103.986206,230.712952 1101.974121,229.252045 1099.814819,228.913574 
	C1098.672852,228.734573 1097.205566,230.630249 1095.885132,231.589264 
	C1096.872681,232.921112 1097.609009,235.018051 1098.895264,235.440414 
	C1102.645752,236.672043 1106.612915,237.250336 1110.500977,238.056305 
	C1124.653809,240.990112 1129.782104,249.794174 1125.200439,263.957916 
z"/>
<path fill="#EED63B" opacity="1.000000" stroke="none" 
	d="
M604.697327,211.070374 
	C604.697327,232.184387 604.697327,252.807480 604.697327,273.721375 
	C597.852783,273.721375 591.428955,273.721375 584.511780,273.721375 
	C584.511780,255.703201 584.511780,237.626358 584.511780,219.121063 
	C580.954834,219.121063 577.865479,219.121063 574.380920,219.121063 
	C574.380920,213.327271 574.380920,207.945999 574.380920,202.271622 
	C584.203979,202.271622 594.120789,202.271622 604.697327,202.271622 
	C604.697327,205.029984 604.697327,207.804718 604.697327,211.070374 
z"/>
<path fill="#EED63B" opacity="1.000000" stroke="none" 
	d="
M895.868591,250.999985 
	C895.868591,258.791260 895.868591,266.082550 895.868591,273.688599 
	C888.960205,273.688599 882.379028,273.688599 875.416748,273.688599 
	C875.416748,247.515930 875.416748,221.173279 875.416748,194.480194 
	C881.901550,194.480194 888.473633,194.480194 895.868591,194.480194 
	C895.868591,213.075455 895.868591,231.787735 895.868591,250.999985 
z"/>
<path fill="#EED63B" opacity="1.000000" stroke="none" 
	d="
M842.039124,238.000046 
	C842.039124,230.224030 842.039124,222.947983 842.039124,215.405853 
	C849.062866,215.405853 855.628723,215.405853 862.533203,215.405853 
	C862.533203,234.854263 862.533203,254.190369 862.533203,273.768372 
	C855.810181,273.768372 849.231689,273.768372 842.039124,273.768372 
	C842.039124,261.979675 842.039124,250.239853 842.039124,238.000046 
z"/>
<path fill="#EED63B" opacity="1.000000" stroke="none" 
	d="
M859.681458,208.875366 
	C853.753662,208.877151 848.297852,208.877151 842.437622,208.877151 
	C842.437622,202.991730 842.437622,197.316925 842.437622,191.333313 
	C848.947083,191.333313 855.505249,191.333313 862.854736,191.333313 
	C862.854736,196.419403 862.956543,201.645752 862.734863,206.858353 
	C862.704834,207.565414 861.053894,208.203537 859.681458,208.875366 
z"/>
<path fill="#000000" opacity="1.000000" stroke="none" 
	d="
M90.179649,145.163651 
	C126.141281,145.163651 161.627838,145.254013 197.113449,145.111008 
	C208.408890,145.065506 214.791672,150.539597 214.615860,162.527908 
	C214.261658,186.679977 214.364624,210.842148 214.572327,234.997620 
	C214.674988,246.936768 210.094528,251.472382 197.837448,251.490845 
	C161.518326,251.545563 125.199028,251.474808 88.879921,251.532486 
	C78.206322,251.549438 72.642563,246.155060 72.846008,235.604385 
	C73.318054,211.123032 72.992943,186.626343 72.997704,162.135880 
	C73.000000,150.291870 77.937904,145.282837 90.179649,145.163651 
M197.045898,170.598999 
	C196.385788,169.266785 195.843979,167.858551 195.045212,166.615448 
	C191.500916,161.099579 183.912979,159.459015 179.029709,163.086731 
	C172.642654,167.831604 170.695145,176.966415 175.022614,181.882080 
	C178.789749,186.161240 184.889160,187.920563 189.276047,185.993332 
	C195.331726,183.333008 197.855652,178.692017 197.045898,170.598999 
z"/>
<path fill="#000000" opacity="1.000000" stroke="none" 
	d="
M205.919037,83.093185 
	C216.640686,92.832550 220.302277,104.708328 217.588760,118.321487 
	C216.662888,122.966545 213.995193,127.297668 211.905273,131.667938 
	C209.874191,135.915161 206.832886,137.435318 201.644363,137.215118 
	C187.348312,136.608353 173.009735,137.002762 158.687988,137.001785 
	C149.583435,137.001160 142.615112,130.426956 140.901672,121.256790 
	C139.193695,112.115891 139.257812,103.286606 143.077728,94.658829 
	C134.016281,97.762489 125.248604,100.765541 117.030891,103.580215 
	C120.115204,109.027428 123.328018,114.086311 125.916573,119.446655 
	C128.493332,124.782578 126.529480,130.183029 124.830589,135.379547 
	C124.583458,136.135452 123.045860,136.917221 122.096581,136.928253 
	C109.109749,137.079422 96.120491,137.172623 83.134819,137.022430 
	C81.929657,137.008484 80.292015,135.483688 79.629250,134.245941 
	C76.833733,129.025192 76.461929,123.676514 78.688766,117.958023 
	C82.638206,107.815918 88.737595,101.285988 100.538612,100.583565 
	C106.222916,100.245216 111.846962,97.576118 117.333496,95.522202 
	C127.198708,91.829102 136.960510,87.855370 146.721085,83.889519 
	C150.042908,82.539825 153.561218,81.318687 156.423325,79.253708 
	C169.261429,69.991150 182.761993,69.605453 196.679672,76.002846 
	C200.037323,77.546219 202.759842,80.471344 205.919037,83.093185 
z"/>
<path fill="#000000" opacity="1.000000" stroke="none" 
	d="
M223.055908,167.533936 
	C228.539780,162.985168 233.700058,158.678619 238.962555,154.500824 
	C242.650192,151.573273 246.345230,148.618240 250.284927,146.056854 
	C253.309158,144.090622 255.984573,146.282654 255.988419,150.554367 
	C256.011902,176.535995 256.000214,202.517685 256.000183,228.499344 
	C256.000183,234.495117 256.056122,240.491577 255.981659,246.486420 
	C255.924210,251.110916 253.108261,252.710220 249.336670,249.946518 
	C243.973663,246.016663 238.900955,241.687271 233.750534,237.472000 
	C230.985016,235.208618 228.633286,232.158447 225.517456,230.680954 
	C222.197052,229.106461 221.948746,227.007309 221.962173,224.023987 
	C222.039383,206.869781 221.979553,189.714981 222.033569,172.560593 
	C222.038528,170.983353 222.517227,169.407608 223.055908,167.533936 
z"/>
<path fill="#000000" opacity="1.000000" stroke="none" 
	d="
M512.726746,257.864471 
	C501.651489,257.644867 496.303497,246.842758 500.779175,238.594070 
	C503.475464,233.624756 509.528900,230.826401 514.568970,232.107468 
	C519.896179,233.461502 523.920044,238.511978 524.110962,244.084213 
	C524.325867,250.352188 521.100952,255.238480 515.498291,257.103882 
	C514.716003,257.364349 513.906616,257.543854 512.726746,257.864471 
z"/>
<path fill="#000000" opacity="1.000000" stroke="none" 
	d="
M723.303345,219.386414 
	C730.723145,226.332230 730.539429,235.035339 729.701172,243.663803 
	C729.361938,247.155334 728.003662,250.769913 726.268677,253.856033 
	C723.001770,259.667145 715.430664,259.828033 711.369751,254.535934 
	C706.085022,247.648941 705.808655,229.301010 710.885559,222.388168 
	C714.159851,217.929871 717.466309,217.048721 723.303345,219.386414 
z"/>
<path fill="#000000" opacity="1.000000" stroke="none" 
	d="
M648.683716,217.984222 
	C653.673340,219.337952 656.227417,222.579773 657.438904,227.024887 
	C659.759583,235.539978 659.970398,243.984406 656.306824,252.221924 
	C654.622742,256.008667 651.886230,258.214935 647.466370,258.205078 
	C643.212708,258.195618 640.497620,255.886536 639.023987,252.409088 
	C635.051636,243.035324 635.114929,233.442001 638.960571,224.061920 
	C640.550903,220.182922 643.697632,217.731186 648.683716,217.984222 
z"/>
<path fill="#000000" opacity="1.000000" stroke="none" 
	d="
M1027.369385,236.740601 
	C1029.925537,231.426361 1034.042480,229.353668 1039.289062,230.065750 
	C1043.493408,230.636398 1047.002319,232.619324 1048.690674,238.431366 
	C1041.113770,237.964386 1034.159546,237.535782 1027.369385,236.740601 
z"/>
<path fill="#000000" opacity="1.000000" stroke="none" 
	d="
M448.443054,252.247742 
	C443.571289,257.381836 438.193909,258.604370 433.074127,255.967972 
	C428.073273,253.392853 425.828979,248.109100 426.960236,241.574265 
	C427.782806,236.822708 431.828705,233.223679 437.433044,232.520370 
	C441.811401,231.970901 445.569946,233.461288 448.124725,237.059601 
	C451.498840,241.811844 451.352417,246.883835 448.443054,252.247742 
z"/>
<path fill="#EED63B" opacity="1.000000" stroke="none" 
	d="
M197.145142,170.970062 
	C197.855652,178.692017 195.331726,183.333008 189.276047,185.993332 
	C184.889160,187.920563 178.789749,186.161240 175.022614,181.882080 
	C170.695145,176.966415 172.642654,167.831604 179.029709,163.086731 
	C183.912979,159.459015 191.500916,161.099579 195.045212,166.615448 
	C195.843979,167.858551 196.385788,169.266785 197.145142,170.970062 
M186.330307,170.023163 
	C182.418930,169.762573 180.668518,171.678284 181.755325,175.357452 
	C182.117813,176.584534 183.971725,177.924637 185.309402,178.128922 
	C186.317444,178.282867 188.523361,176.741241 188.552933,175.896790 
	C188.618027,174.038254 187.643433,172.143326 186.330307,170.023163 
z"/>
<path fill="#000000" opacity="1.000000" stroke="none" 
	d="
M186.711731,170.143204 
	C187.643433,172.143326 188.618027,174.038254 188.552933,175.896790 
	C188.523361,176.741241 186.317444,178.282867 185.309402,178.128922 
	C183.971725,177.924637 182.117813,176.584534 181.755325,175.357452 
	C180.668518,171.678284 182.418930,169.762573 186.711731,170.143204 
z"/>
</svg>