<svg version="1.1" id="Layer_1" xmlns="http://www.w3.org/2000/svg" xmlns:xlink="http://www.w3.org/1999/xlink" x="0px" y="0px"
	 width="100%" viewBox="0 0 800 800" enable-background="new 0 0 800 800" xml:space="preserve">
<path fill="#000000" opacity="1.000000" stroke="none" 
	d="
M542.000000,801.000000 
	C361.333344,801.000000 181.166672,801.000000 1.000000,801.000000 
	C1.000000,534.333313 1.000000,267.666656 1.000000,1.000000 
	C267.666656,1.000000 534.333313,1.000000 801.000000,1.000000 
	C801.000000,267.666656 801.000000,534.333313 801.000000,801.000000 
	C714.833313,801.000000 628.666687,801.000000 542.000000,801.000000 
M265.152557,491.360443 
	C280.412109,504.439941 298.067322,511.275940 318.186951,511.293488 
	C386.330200,511.352905 454.474182,511.493256 522.616638,511.255310 
	C568.175415,511.096222 603.869263,474.944580 603.919617,429.366425 
	C603.994263,361.723022 604.003845,294.079376 603.915710,226.435989 
	C603.856689,181.147903 568.201904,144.948837 522.918823,144.759247 
	C454.610077,144.473236 386.298248,144.461182 317.989655,144.764160 
	C272.721893,144.964951 237.137009,181.199875 237.082367,226.527573 
	C237.000824,294.170990 236.967972,361.814728 237.110550,429.457947 
	C237.162064,453.895660 246.464172,474.437103 265.152557,491.360443 
z"/>
<path fill="#EDD53B" opacity="1.000000" stroke="none" 
	d="
M264.883270,491.127960 
	C246.464172,474.437103 237.162064,453.895660 237.110550,429.457947 
	C236.967972,361.814728 237.000824,294.170990 237.082367,226.527573 
	C237.137009,181.199875 272.721893,144.964951 317.989655,144.764160 
	C386.298248,144.461182 454.610077,144.473236 522.918823,144.759247 
	C568.201904,144.948837 603.856689,181.147903 603.915710,226.435989 
	C604.003845,294.079376 603.994263,361.723022 603.919617,429.366425 
	C603.869263,474.944580 568.175415,511.096222 522.616638,511.255310 
	C454.474182,511.493256 386.330200,511.352905 318.186951,511.293488 
	C298.067322,511.275940 280.412109,504.439941 264.883270,491.127960 
M468.910339,273.036102 
	C420.084686,272.993988 371.258820,272.865417 322.433563,272.984711 
	C312.984375,273.007782 307.031891,279.790070 307.018158,289.604767 
	C306.971771,322.768250 306.988678,355.931793 307.006500,389.095337 
	C307.012878,400.938843 313.010803,406.987762 324.780914,406.992310 
	C371.443176,407.010376 418.105438,407.009796 464.767700,406.992401 
	C475.826874,406.988281 482.277924,401.397705 482.366882,390.431549 
	C482.639954,356.770538 482.592773,323.105347 482.406921,289.443237 
	C482.356842,280.372803 478.538269,276.024384 468.910339,273.036102 
M442.196198,180.156464 
	C431.737793,179.367950 422.136383,181.970032 413.073730,187.156448 
	C408.200531,189.945343 403.210815,192.627625 398.027588,194.759827 
	C381.911011,201.389709 365.699341,207.791214 349.466217,214.132065 
	C346.750275,215.192947 343.773499,215.871185 340.866364,216.112030 
	C319.462616,217.885300 305.864044,240.587128 315.034393,259.622284 
	C315.717529,261.040314 317.708313,262.754578 319.100586,262.762909 
	C334.744507,262.856415 350.390656,262.538757 366.035248,262.596344 
	C369.255920,262.608215 370.824249,261.463684 371.924805,258.623230 
	C375.040588,250.581894 375.089813,242.515778 371.157928,234.937592 
	C368.554138,229.919174 364.741211,225.528137 361.312775,220.632324 
	C371.777527,216.468231 382.701874,212.121277 394.394348,207.468674 
	C386.792999,226.269882 388.316925,242.949829 399.637543,258.576111 
	C401.661835,261.370300 403.883881,262.605347 407.489746,262.602936 
	C428.792419,262.588745 450.095215,262.894867 471.398254,262.935577 
	C472.763977,262.938171 474.509918,261.944305 475.441467,260.864166 
	C485.894836,248.743362 489.572357,234.682190 486.470581,219.044495 
	C482.583374,199.447235 466.177429,182.637527 442.196198,180.156464 
M492.832367,348.499939 
	C492.832367,356.832062 492.623138,365.172913 492.968323,373.490692 
	C493.063660,375.787170 494.227020,378.663391 495.896881,380.166687 
	C505.053314,388.409943 514.422852,396.427521 523.967712,404.218292 
	C525.715393,405.644836 529.160034,406.816101 530.820068,406.019257 
	C532.520264,405.203186 533.859802,401.828979 533.870056,399.567780 
	C534.048828,359.907440 534.053589,320.245880 533.867004,280.585602 
	C533.855530,278.150024 532.545837,274.727600 530.715454,273.615723 
	C529.315491,272.765289 525.641663,274.236572 523.833374,275.717865 
	C514.303833,283.524170 504.953552,291.559052 495.781006,299.782166 
	C494.205017,301.195068 492.998383,303.884308 492.960175,306.008026 
	C492.711456,319.834961 492.832397,333.668549 492.832367,348.499939 
M370.822632,446.504852 
	C371.190033,463.457520 384.015045,476.270844 400.199188,475.854584 
	C415.214020,475.468445 427.972809,464.336090 427.644867,451.725403 
	C420.789062,451.856689 412.978546,448.883423 409.154846,458.112762 
	C408.777222,459.024292 407.414307,459.618744 406.402008,460.161316 
	C399.955902,463.616486 391.934326,461.161926 388.343445,454.686096 
	C384.302521,447.398743 386.545685,437.451691 393.147034,433.385223 
	C399.483002,429.482178 407.217133,431.323395 411.573151,437.616333 
	C412.488647,438.938904 413.866119,440.721558 415.172485,440.849976 
	C419.382080,441.263885 423.657898,441.004211 427.983246,441.004211 
	C425.633423,426.007843 413.432068,416.576263 398.308746,417.547699 
	C382.561707,418.559235 371.409729,429.938263 370.822632,446.504852 
M436.744446,452.499817 
	C436.744446,459.905884 436.744446,467.311951 436.744446,474.678650 
	C442.134155,474.678650 446.858826,474.678650 452.018799,474.678650 
	C452.018799,468.122009 452.018799,461.879272 452.018799,455.080566 
	C458.155701,455.080566 463.867859,455.080566 469.583008,455.080566 
	C469.583008,450.438599 469.583008,446.377441 469.583008,441.839264 
	C463.549469,441.839264 457.814789,441.839264 452.226562,441.839264 
	C452.226562,438.611969 452.226562,435.875244 452.226562,432.692322 
	C458.955597,432.692322 465.358002,432.692322 471.792664,432.692322 
	C471.792664,427.965698 471.792664,423.704803 471.792664,419.309082 
	C460.047668,419.309082 448.518127,419.309082 436.744446,419.309082 
	C436.744446,430.245667 436.744446,440.872742 436.744446,452.499817 
M368.132812,429.278748 
	C368.132812,425.993256 368.132812,422.707733 368.132812,419.316956 
	C352.790588,419.316956 337.908966,419.316956 323.141357,419.316956 
	C323.141357,423.886932 323.141357,428.133270 323.141357,432.941650 
	C328.184479,432.941650 332.910950,432.941650 338.061340,432.941650 
	C338.061340,447.247406 338.061340,460.981354 338.061340,474.718689 
	C343.261505,474.718689 348.001678,474.718689 353.151733,474.718689 
	C353.151733,460.690338 353.151733,446.941071 353.151733,432.757660 
	C357.351196,432.757660 361.160248,432.947571 364.929016,432.641449 
	C366.053101,432.550110 367.064331,431.069153 368.132812,429.278748 
z"/>
<path fill="#010100" opacity="1.000000" stroke="none" 
	d="
M469.342102,273.081055 
	C478.538269,276.024384 482.356842,280.372803 482.406921,289.443237 
	C482.592773,323.105347 482.639954,356.770538 482.366882,390.431549 
	C482.277924,401.397705 475.826874,406.988281 464.767700,406.992401 
	C418.105438,407.009796 371.443176,407.010376 324.780914,406.992310 
	C313.010803,406.987762 307.012878,400.938843 307.006500,389.095337 
	C306.988678,355.931793 306.971771,322.768250 307.018158,289.604767 
	C307.031891,279.790070 312.984375,273.007782 322.433563,272.984711 
	C371.258820,272.865417 420.084686,272.993988 469.342102,273.081055 
M446.417389,293.548004 
	C445.426971,293.662903 444.429535,293.735779 443.447266,293.899506 
	C436.381531,295.077209 431.397034,300.744965 430.997528,308.030579 
	C430.595276,315.365631 434.896729,321.729004 441.596436,323.710236 
	C450.517273,326.348358 459.370544,321.276306 461.136200,312.515778 
	C463.142487,302.561371 457.533386,294.987091 446.417389,293.548004 
z"/>
<path fill="#030301" opacity="1.000000" stroke="none" 
	d="
M442.652222,180.164993 
	C466.177429,182.637527 482.583374,199.447235 486.470581,219.044495 
	C489.572357,234.682190 485.894836,248.743362 475.441467,260.864166 
	C474.509918,261.944305 472.763977,262.938171 471.398254,262.935577 
	C450.095215,262.894867 428.792419,262.588745 407.489746,262.602936 
	C403.883881,262.605347 401.661835,261.370300 399.637543,258.576111 
	C388.316925,242.949829 386.792999,226.269882 394.394348,207.468674 
	C382.701874,212.121277 371.777527,216.468231 361.312775,220.632324 
	C364.741211,225.528137 368.554138,229.919174 371.157928,234.937592 
	C375.089813,242.515778 375.040588,250.581894 371.924805,258.623230 
	C370.824249,261.463684 369.255920,262.608215 366.035248,262.596344 
	C350.390656,262.538757 334.744507,262.856415 319.100586,262.762909 
	C317.708313,262.754578 315.717529,261.040314 315.034393,259.622284 
	C305.864044,240.587128 319.462616,217.885300 340.866364,216.112030 
	C343.773499,215.871185 346.750275,215.192947 349.466217,214.132065 
	C365.699341,207.791214 381.911011,201.389709 398.027588,194.759827 
	C403.210815,192.627625 408.200531,189.945343 413.073730,187.156448 
	C422.136383,181.970032 431.737793,179.367950 442.652222,180.164993 
z"/>
<path fill="#010000" opacity="1.000000" stroke="none" 
	d="
M492.832367,347.999939 
	C492.832397,333.668549 492.711456,319.834961 492.960175,306.008026 
	C492.998383,303.884308 494.205017,301.195068 495.781006,299.782166 
	C504.953552,291.559052 514.303833,283.524170 523.833374,275.717865 
	C525.641663,274.236572 529.315491,272.765289 530.715454,273.615723 
	C532.545837,274.727600 533.855530,278.150024 533.867004,280.585602 
	C534.053589,320.245880 534.048828,359.907440 533.870056,399.567780 
	C533.859802,401.828979 532.520264,405.203186 530.820068,406.019257 
	C529.160034,406.816101 525.715393,405.644836 523.967712,404.218292 
	C514.422852,396.427521 505.053314,388.409943 495.896881,380.166687 
	C494.227020,378.663391 493.063660,375.787170 492.968323,373.490692 
	C492.623138,365.172913 492.832367,356.832062 492.832367,347.999939 
z"/>
<path fill="#040401" opacity="1.000000" stroke="none" 
	d="
M370.828308,446.043304 
	C371.409729,429.938263 382.561707,418.559235 398.308746,417.547699 
	C413.432068,416.576263 425.633423,426.007843 427.983246,441.004211 
	C423.657898,441.004211 419.382080,441.263885 415.172485,440.849976 
	C413.866119,440.721558 412.488647,438.938904 411.573151,437.616333 
	C407.217133,431.323395 399.483002,429.482178 393.147034,433.385223 
	C386.545685,437.451691 384.302521,447.398743 388.343445,454.686096 
	C391.934326,461.161926 399.955902,463.616486 406.402008,460.161316 
	C407.414307,459.618744 408.777222,459.024292 409.154846,458.112762 
	C412.978546,448.883423 420.789062,451.856689 427.644867,451.725403 
	C427.972809,464.336090 415.214020,475.468445 400.199188,475.854584 
	C384.015045,476.270844 371.190033,463.457520 370.828308,446.043304 
z"/>
<path fill="#030301" opacity="1.000000" stroke="none" 
	d="
M436.744446,451.999817 
	C436.744446,440.872742 436.744446,430.245667 436.744446,419.309082 
	C448.518127,419.309082 460.047668,419.309082 471.792664,419.309082 
	C471.792664,423.704803 471.792664,427.965698 471.792664,432.692322 
	C465.358002,432.692322 458.955597,432.692322 452.226562,432.692322 
	C452.226562,435.875244 452.226562,438.611969 452.226562,441.839264 
	C457.814789,441.839264 463.549469,441.839264 469.583008,441.839264 
	C469.583008,446.377441 469.583008,450.438599 469.583008,455.080566 
	C463.867859,455.080566 458.155701,455.080566 452.018799,455.080566 
	C452.018799,461.879272 452.018799,468.122009 452.018799,474.678650 
	C446.858826,474.678650 442.134155,474.678650 436.744446,474.678650 
	C436.744446,467.311951 436.744446,459.905884 436.744446,451.999817 
z"/>
<path fill="#030301" opacity="1.000000" stroke="none" 
	d="
M368.130035,429.751831 
	C367.064331,431.069153 366.053101,432.550110 364.929016,432.641449 
	C361.160248,432.947571 357.351196,432.757660 353.151733,432.757660 
	C353.151733,446.941071 353.151733,460.690338 353.151733,474.718689 
	C348.001678,474.718689 343.261505,474.718689 338.061340,474.718689 
	C338.061340,460.981354 338.061340,447.247406 338.061340,432.941650 
	C332.910950,432.941650 328.184479,432.941650 323.141357,432.941650 
	C323.141357,428.133270 323.141357,423.886932 323.141357,419.316956 
	C337.908966,419.316956 352.790588,419.316956 368.132812,419.316956 
	C368.132812,422.707733 368.132812,425.993256 368.130035,429.751831 
z"/>
<path fill="#E8D13A" opacity="1.000000" stroke="none" 
	d="
M446.803253,293.615051 
	C457.533386,294.987091 463.142487,302.561371 461.136200,312.515778 
	C459.370544,321.276306 450.517273,326.348358 441.596436,323.710236 
	C434.896729,321.729004 430.595276,315.365631 430.997528,308.030579 
	C431.397034,300.744965 436.381531,295.077209 443.447266,293.899506 
	C444.429535,293.735779 445.426971,293.662903 446.803253,293.615051 
M450.072235,312.407532 
	C451.942322,307.446442 450.807983,304.114227 446.918976,304.117188 
	C445.254578,304.118469 442.722626,305.284973 442.151062,306.601807 
	C441.462555,308.188202 441.760529,311.537018 442.854156,312.251648 
	C444.517975,313.338959 447.233063,312.817474 450.072235,312.407532 
z"/>
<path fill="#0C0B03" opacity="1.000000" stroke="none" 
	d="
M449.786957,312.693359 
	C447.233063,312.817474 444.517975,313.338959 442.854156,312.251648 
	C441.760529,311.537018 441.462555,308.188202 442.151062,306.601807 
	C442.722626,305.284973 445.254578,304.118469 446.918976,304.117188 
	C450.807983,304.114227 451.942322,307.446442 449.786957,312.693359 
z"/>
</svg>