<?xml version="1.0" standalone="no"?>
<!DOCTYPE svg PUBLIC "-//W3C//DTD SVG 20010904//EN"
 "http://www.w3.org/TR/2001/REC-SVG-20010904/DTD/svg10.dtd">
<svg version="1.0" xmlns="http://www.w3.org/2000/svg"
 width="1923.000000pt" height="408.000000pt" viewBox="0 0 1923.000000 408.000000"
 preserveAspectRatio="xMidYMid meet">

<g transform="translate(0.000000,408.000000) scale(0.100000,-0.100000)"
fill="#000000" stroke="none">
<path d="M0 2040 l0 -2040 9615 0 9615 0 0 2040 0 2040 -9615 0 -9615 0 0
-2040z m165 1875 l0 -100 -60 0 -60 0 -3 89 c-2 49 0 96 2 103 4 10 21 13 63
11 l58 -3 0 -100z m240 0 l0 -100 -60 0 -60 0 -3 89 c-2 49 0 96 2 103 4 10
21 13 63 11 l58 -3 0 -100z m243 6 c3 -108 1 -111 -70 -111 -37 0 -50 4 -58
19 -14 28 -13 164 2 179 8 8 34 12 68 10 l55 -3 3 -94z m240 6 c2 -57 -1 -94
-9 -103 -14 -17 -100 -19 -117 -2 -13 13 -17 153 -6 183 5 13 19 15 68 13 l61
-3 3 -88z m236 77 c11 -29 7 -169 -6 -182 -7 -7 -33 -12 -58 -12 -25 0 -51 5
-58 12 -13 13 -17 179 -5 191 3 4 32 7 64 7 43 0 58 -4 63 -16z m231 -89 l0
-100 -39 -3 c-22 -2 -50 -1 -63 2 -22 6 -23 10 -23 100 0 51 3 96 7 100 4 4
32 6 63 4 l55 -3 0 -100z m240 0 l0 -100 -60 0 -60 0 -3 89 c-2 49 0 96 2 103
4 10 21 13 63 11 l58 -3 0 -100z m243 3 c3 -95 2 -98 -21 -103 -13 -4 -41 -5
-63 -3 l-39 3 -3 89 c-2 49 0 96 2 103 4 10 21 13 63 11 l58 -3 3 -97z m240 3
c2 -69 -1 -97 -10 -103 -20 -12 -102 -10 -116 4 -16 16 -16 170 0 186 8 8 34
12 68 10 l55 -3 3 -94z m236 83 c11 -29 7 -169 -6 -182 -7 -7 -33 -12 -58 -12
-25 0 -51 5 -58 12 -13 13 -17 179 -5 191 3 4 32 7 64 7 43 0 58 -4 63 -16z
m236 -3 c14 -27 13 -164 -2 -179 -7 -7 -33 -12 -58 -12 -25 0 -51 5 -58 12
-13 13 -17 179 -5 191 3 4 30 7 59 7 42 0 55 -4 64 -19z m235 -86 l0 -100 -60
0 -60 0 -3 89 c-2 49 0 96 2 103 4 10 21 13 63 11 l58 -3 0 -100z m240 0 l0
-100 -60 0 -60 0 -3 89 c-2 49 0 96 2 103 4 10 21 13 63 11 l58 -3 0 -100z
m243 6 c3 -108 1 -111 -70 -111 -37 0 -50 4 -58 19 -14 28 -13 164 2 179 8 8
34 12 68 10 l55 -3 3 -94z m240 6 c2 -57 -1 -94 -9 -103 -14 -17 -100 -19
-117 -2 -13 13 -17 179 -5 192 4 4 34 6 68 4 l60 -3 3 -88z m230 81 c7 -7 12
-43 12 -93 0 -50 -5 -86 -12 -93 -7 -7 -33 -12 -58 -12 -25 0 -51 5 -58 12
-13 13 -17 179 -5 191 11 12 108 8 121 -5z m237 -93 l0 -100 -39 -3 c-22 -2
-50 -1 -63 2 -22 6 -23 10 -23 100 0 51 3 96 7 100 4 4 32 6 63 4 l55 -3 0
-100z m240 0 l0 -100 -60 0 -60 0 -3 89 c-2 49 0 96 2 103 4 10 21 13 63 11
l58 -3 0 -100z m243 6 c3 -108 1 -111 -70 -111 -37 0 -50 4 -58 19 -14 28 -13
164 2 179 8 8 34 12 68 10 l55 -3 3 -94z m240 6 c2 -57 -1 -94 -9 -103 -14
-17 -100 -19 -117 -2 -13 13 -17 153 -6 183 5 13 19 15 68 13 l61 -3 3 -88z
m236 77 c11 -29 7 -169 -6 -182 -7 -7 -33 -12 -58 -12 -25 0 -51 5 -58 12 -13
13 -17 179 -5 191 3 4 32 7 64 7 43 0 58 -4 63 -16z m236 -3 c5 -11 10 -50 10
-86 0 -90 -10 -105 -65 -105 -74 0 -75 1 -75 104 0 51 3 96 7 99 3 4 30 7 59
7 42 0 55 -4 64 -19z m235 -86 l0 -100 -60 0 -60 0 -3 89 c-2 49 0 96 2 103 4
10 21 13 63 11 l58 -3 0 -100z m4400 0 l0 -100 -60 0 -60 0 -3 89 c-2 49 0 96
2 103 4 10 21 13 63 11 l58 -3 0 -100z m240 0 l0 -100 -60 0 -60 0 -3 89 c-2
49 0 96 2 103 4 10 21 13 63 11 l58 -3 0 -100z m243 6 c3 -108 1 -111 -70
-111 -37 0 -50 4 -58 19 -14 28 -13 164 2 179 8 8 34 12 68 10 l55 -3 3 -94z
m240 6 c2 -57 -1 -94 -9 -103 -14 -17 -100 -19 -117 -2 -13 13 -17 153 -6 183
5 13 19 15 68 13 l61 -3 3 -88z m236 77 c11 -29 7 -169 -6 -182 -7 -7 -33 -12
-58 -12 -25 0 -51 5 -58 12 -13 13 -17 179 -5 191 3 4 32 7 64 7 43 0 58 -4
63 -16z m231 -89 l0 -100 -39 -3 c-22 -2 -50 -1 -63 2 -22 6 -23 10 -23 100 0
51 3 96 7 100 4 4 32 6 63 4 l55 -3 0 -100z m240 0 l0 -100 -60 0 -60 0 -3 89
c-2 49 0 96 2 103 4 10 21 13 63 11 l58 -3 0 -100z m243 3 c3 -95 2 -98 -21
-103 -13 -4 -41 -5 -63 -3 l-39 3 -3 89 c-2 49 0 96 2 103 4 10 21 13 63 11
l58 -3 3 -97z m240 3 c2 -69 -1 -97 -10 -103 -20 -12 -102 -10 -116 4 -16 16
-16 170 0 186 8 8 34 12 68 10 l55 -3 3 -94z m236 83 c11 -29 7 -169 -6 -182
-7 -7 -33 -12 -58 -12 -25 0 -51 5 -58 12 -13 13 -17 179 -5 191 3 4 32 7 64
7 43 0 58 -4 63 -16z m236 -3 c14 -27 13 -164 -2 -179 -7 -7 -33 -12 -58 -12
-25 0 -51 5 -58 12 -13 13 -17 179 -5 191 3 4 30 7 59 7 42 0 55 -4 64 -19z
m235 -86 l0 -100 -60 0 -60 0 -3 89 c-2 49 0 96 2 103 4 10 21 13 63 11 l58
-3 0 -100z m240 0 l0 -100 -60 0 -60 0 -3 89 c-2 49 0 96 2 103 4 10 21 13 63
11 l58 -3 0 -100z m243 6 c3 -108 1 -111 -70 -111 -37 0 -50 4 -58 19 -14 28
-13 164 2 179 8 8 34 12 68 10 l55 -3 3 -94z m240 6 c2 -57 -1 -94 -9 -103
-14 -17 -100 -19 -117 -2 -13 13 -17 179 -5 192 4 4 34 6 68 4 l60 -3 3 -88z
m230 81 c7 -7 12 -43 12 -93 0 -50 -5 -86 -12 -93 -7 -7 -33 -12 -58 -12 -25
0 -51 5 -58 12 -13 13 -17 179 -5 191 11 12 108 8 121 -5z m237 -93 l0 -100
-39 -3 c-22 -2 -50 -1 -63 2 -22 6 -23 10 -23 100 0 51 3 96 7 100 4 4 32 6
63 4 l55 -3 0 -100z m240 0 l0 -100 -60 0 -60 0 -3 89 c-2 49 0 96 2 103 4 10
21 13 63 11 l58 -3 0 -100z m243 6 c3 -108 1 -111 -70 -111 -37 0 -50 4 -58
19 -14 28 -13 164 2 179 8 8 34 12 68 10 l55 -3 3 -94z m240 6 c2 -57 -1 -94
-9 -103 -14 -17 -100 -19 -117 -2 -13 13 -17 153 -6 183 5 13 19 15 68 13 l61
-3 3 -88z m236 77 c11 -29 7 -169 -6 -182 -7 -7 -33 -12 -58 -12 -25 0 -51 5
-58 12 -13 13 -17 179 -5 191 3 4 32 7 64 7 43 0 58 -4 63 -16z m236 -3 c5
-11 10 -50 10 -86 0 -90 -10 -105 -65 -105 -74 0 -75 1 -75 104 0 51 3 96 7
99 3 4 30 7 59 7 42 0 55 -4 64 -19z m235 -86 l0 -100 -60 0 -60 0 -3 89 c-2
49 0 96 2 103 4 10 21 13 63 11 l58 -3 0 -100z m-9391 79 c9 -23 7 -167 -3
-182 -5 -9 -26 -12 -67 -10 l-59 3 -3 103 -3 102 65 0 c49 0 65 -4 70 -16z
m241 -89 l0 -100 -53 -3 c-76 -4 -82 4 -82 108 0 47 3 90 7 94 4 4 34 6 68 4
l60 -3 0 -100z m249 89 c9 -23 7 -167 -3 -182 -5 -9 -26 -12 -67 -10 l-59 3
-3 103 -3 102 65 0 c49 0 65 -4 70 -16z m241 -89 l0 -100 -59 -3 c-41 -2 -62
1 -67 10 -11 16 -12 182 -2 192 4 4 34 6 68 4 l60 -3 0 -100z m249 89 c9 -23
7 -167 -3 -182 -5 -9 -26 -12 -67 -10 l-59 3 -3 103 -3 102 65 0 c49 0 65 -4
70 -16z m241 -89 l0 -100 -59 -3 c-41 -2 -62 1 -67 10 -11 16 -12 182 -2 192
4 4 34 6 68 4 l60 -3 0 -100z m249 89 c9 -23 7 -167 -3 -182 -5 -9 -26 -12
-67 -10 l-59 3 -3 103 -3 102 65 0 c49 0 65 -4 70 -16z m241 -89 l0 -100 -59
-3 c-41 -2 -62 1 -67 10 -11 16 -12 182 -2 192 4 4 34 6 68 4 l60 -3 0 -100z
m249 89 c9 -23 7 -167 -3 -182 -5 -9 -26 -12 -67 -10 l-59 3 -3 103 -3 102 65
0 c49 0 65 -4 70 -16z m241 -89 l0 -100 -59 -3 c-41 -2 -62 1 -67 10 -11 16
-12 182 -2 192 4 4 34 6 68 4 l60 -3 0 -100z m249 89 c9 -23 7 -167 -3 -182
-5 -9 -26 -12 -67 -10 l-59 3 -3 103 -3 102 65 0 c49 0 65 -4 70 -16z m241
-89 l0 -100 -59 -3 c-41 -2 -62 1 -67 10 -11 16 -12 182 -2 192 4 4 34 6 68 4
l60 -3 0 -100z m249 89 c9 -23 7 -167 -3 -182 -5 -9 -26 -12 -67 -10 l-59 3
-3 103 -3 102 65 0 c49 0 65 -4 70 -16z m241 -89 l0 -100 -59 -3 c-41 -2 -62
1 -67 10 -11 16 -12 182 -2 192 4 4 34 6 68 4 l60 -3 0 -100z m249 89 c9 -23
7 -167 -3 -182 -5 -9 -26 -12 -67 -10 l-59 3 -3 103 -3 102 65 0 c49 0 65 -4
70 -16z m241 -89 l0 -100 -65 0 -65 0 -3 89 c-2 49 0 96 2 103 4 10 22 13 68
11 l63 -3 0 -100z m249 89 c9 -23 7 -167 -3 -182 -5 -9 -26 -12 -67 -10 l-59
3 -3 103 -3 102 65 0 c49 0 65 -4 70 -16z m5720 0 c9 -23 7 -167 -3 -182 -5
-9 -26 -12 -67 -10 l-59 3 -3 103 -3 102 65 0 c49 0 65 -4 70 -16z m241 -89
l0 -100 -53 -3 c-76 -4 -82 4 -82 108 0 47 3 90 7 94 4 4 34 6 68 4 l60 -3 0
-100z m249 89 c9 -23 7 -167 -3 -182 -5 -9 -26 -12 -67 -10 l-59 3 -3 103 -3
102 65 0 c49 0 65 -4 70 -16z m241 -89 l0 -100 -59 -3 c-41 -2 -62 1 -67 10
-11 16 -12 182 -2 192 4 4 34 6 68 4 l60 -3 0 -100z m249 89 c9 -23 7 -167 -3
-182 -5 -9 -26 -12 -67 -10 l-59 3 -3 103 -3 102 65 0 c49 0 65 -4 70 -16z
m241 -89 l0 -100 -59 -3 c-41 -2 -62 1 -67 10 -11 16 -12 182 -2 192 4 4 34 6
68 4 l60 -3 0 -100z m249 89 c9 -23 7 -167 -3 -182 -5 -9 -26 -12 -67 -10
l-59 3 -3 103 -3 102 65 0 c49 0 65 -4 70 -16z m241 -89 l0 -100 -59 -3 c-41
-2 -62 1 -67 10 -11 16 -12 182 -2 192 4 4 34 6 68 4 l60 -3 0 -100z m249 89
c9 -23 7 -167 -3 -182 -5 -9 -26 -12 -67 -10 l-59 3 -3 103 -3 102 65 0 c49 0
65 -4 70 -16z m241 -89 l0 -100 -59 -3 c-41 -2 -62 1 -67 10 -11 16 -12 182
-2 192 4 4 34 6 68 4 l60 -3 0 -100z m249 89 c9 -23 7 -167 -3 -182 -5 -9 -26
-12 -67 -10 l-59 3 -3 103 -3 102 65 0 c49 0 65 -4 70 -16z m241 -89 l0 -100
-59 -3 c-41 -2 -62 1 -67 10 -11 16 -12 182 -2 192 4 4 34 6 68 4 l60 -3 0
-100z m249 89 c9 -23 7 -167 -3 -182 -5 -9 -26 -12 -67 -10 l-59 3 -3 103 -3
102 65 0 c49 0 65 -4 70 -16z m241 -89 l0 -100 -59 -3 c-41 -2 -62 1 -67 10
-11 16 -12 182 -2 192 4 4 34 6 68 4 l60 -3 0 -100z m249 89 c9 -23 7 -167 -3
-182 -5 -9 -26 -12 -67 -10 l-59 3 -3 103 -3 102 65 0 c49 0 65 -4 70 -16z
m241 -89 l0 -100 -65 0 -65 0 -3 89 c-2 49 0 96 2 103 4 10 22 13 68 11 l63
-3 0 -100z m249 89 c9 -23 7 -167 -3 -182 -5 -9 -26 -12 -67 -10 l-59 3 -3
103 -3 102 65 0 c49 0 65 -4 70 -16z m-15404 -3683 c16 -31 13 -186 -4 -200
-9 -7 -38 -11 -73 -9 l-58 3 -3 104 c-2 77 1 107 10 113 7 4 36 8 65 8 42 0
54 -4 63 -19z m260 0 c15 -28 13 -173 -3 -195 -10 -14 -25 -17 -72 -14 l-60 3
-3 104 c-2 77 1 107 10 113 7 4 36 8 65 8 42 0 54 -4 63 -19z m255 -96 l0
-110 -65 0 -65 0 -3 104 c-2 77 1 107 10 113 7 4 38 7 68 6 l55 -3 0 -110z
m260 0 l0 -110 -65 0 -65 0 -3 104 c-2 77 1 107 10 113 7 4 38 7 68 6 l55 -3
0 -110z m260 0 l0 -110 -60 -3 c-77 -4 -85 6 -85 114 0 104 9 116 89 112 l56
-3 0 -110z m253 107 c9 -6 12 -36 10 -113 l-3 -104 -60 -3 c-77 -4 -85 6 -85
114 0 100 10 114 78 114 26 0 53 -4 60 -8z m260 0 c9 -6 12 -36 10 -113 l-3
-104 -60 -3 c-47 -3 -62 0 -72 14 -17 23 -18 185 -1 202 13 13 106 16 126 4z
m261 -6 c8 -9 11 -48 9 -112 l-3 -99 -58 -3 c-35 -2 -64 2 -73 9 -18 15 -20
189 -2 207 17 17 113 15 127 -2z m260 0 c8 -9 11 -48 9 -112 l-3 -99 -58 -3
c-35 -2 -64 2 -73 9 -18 15 -20 189 -2 207 17 17 113 15 127 -2z m260 0 c8 -9
11 -48 9 -112 l-3 -99 -58 -3 c-35 -2 -64 2 -73 9 -18 15 -20 189 -2 207 17
17 113 15 127 -2z m259 2 c8 -8 12 -46 12 -103 0 -57 -4 -95 -12 -103 -16 -16
-110 -16 -126 0 -8 8 -12 46 -12 103 0 57 4 95 12 103 16 16 110 16 126 0z
m260 0 c8 -8 12 -46 12 -103 0 -57 -4 -95 -12 -103 -16 -16 -110 -16 -126 0
-8 8 -12 46 -12 103 0 57 4 95 12 103 16 16 110 16 126 0z m260 0 c18 -18 16
-192 -2 -207 -9 -7 -38 -11 -73 -9 l-58 3 -3 99 c-2 64 1 103 9 112 14 17 110
19 127 2z m262 -7 c16 -31 13 -186 -4 -200 -9 -7 -38 -11 -73 -9 l-58 3 -3
104 c-2 77 1 107 10 113 7 4 36 8 65 8 42 0 54 -4 63 -19z m260 0 c15 -28 13
-173 -3 -195 -10 -14 -25 -17 -72 -14 l-60 3 -3 104 c-2 77 1 107 10 113 7 4
36 8 65 8 42 0 54 -4 63 -19z m260 0 c15 -28 13 -173 -3 -195 -10 -14 -25 -17
-72 -14 l-60 3 -3 104 c-2 77 1 107 10 113 7 4 36 8 65 8 42 0 54 -4 63 -19z
m255 -96 l0 -110 -65 0 -65 0 -3 104 c-2 77 1 107 10 113 7 4 38 7 68 6 l55
-3 0 -110z m260 0 l0 -110 -65 0 -65 0 -3 104 c-2 77 1 107 10 113 7 4 38 7
68 6 l55 -3 0 -110z m260 0 l0 -110 -60 -3 c-77 -4 -85 6 -85 114 0 104 9 116
89 112 l56 -3 0 -110z m253 107 c9 -6 12 -36 10 -113 l-3 -104 -60 -3 c-77 -4
-85 6 -85 114 0 100 10 114 78 114 26 0 53 -4 60 -8z m260 0 c9 -6 12 -36 10
-113 l-3 -104 -60 -3 c-47 -3 -62 0 -72 14 -17 23 -18 185 -1 202 13 13 106
16 126 4z m261 -6 c8 -9 11 -48 9 -112 l-3 -99 -58 -3 c-35 -2 -64 2 -73 9
-18 15 -20 189 -2 207 17 17 113 15 127 -2z m260 0 c8 -9 11 -48 9 -112 l-3
-99 -58 -3 c-35 -2 -64 2 -73 9 -18 15 -20 189 -2 207 17 17 113 15 127 -2z
m3941 -5 c16 -31 13 -186 -4 -200 -9 -7 -38 -11 -73 -9 l-58 3 -3 104 c-2 77
1 107 10 113 7 4 36 8 65 8 42 0 54 -4 63 -19z m260 0 c15 -28 13 -173 -3
-195 -10 -14 -25 -17 -72 -14 l-60 3 -3 104 c-2 77 1 107 10 113 7 4 36 8 65
8 42 0 54 -4 63 -19z m255 -96 l0 -110 -65 0 -65 0 -3 104 c-2 77 1 107 10
113 7 4 38 7 68 6 l55 -3 0 -110z m260 0 l0 -110 -65 0 -65 0 -3 104 c-2 77 1
107 10 113 7 4 38 7 68 6 l55 -3 0 -110z m260 0 l0 -110 -60 -3 c-77 -4 -85 6
-85 114 0 104 9 116 89 112 l56 -3 0 -110z m253 107 c9 -6 12 -36 10 -113 l-3
-104 -60 -3 c-77 -4 -85 6 -85 114 0 100 10 114 78 114 26 0 53 -4 60 -8z
m260 0 c9 -6 12 -36 10 -113 l-3 -104 -60 -3 c-47 -3 -62 0 -72 14 -17 23 -18
185 -1 202 13 13 106 16 126 4z m261 -6 c8 -9 11 -48 9 -112 l-3 -99 -58 -3
c-35 -2 -64 2 -73 9 -18 15 -20 189 -2 207 17 17 113 15 127 -2z m260 0 c8 -9
11 -48 9 -112 l-3 -99 -58 -3 c-35 -2 -64 2 -73 9 -18 15 -20 189 -2 207 17
17 113 15 127 -2z m260 0 c8 -9 11 -48 9 -112 l-3 -99 -58 -3 c-35 -2 -64 2
-73 9 -18 15 -20 189 -2 207 17 17 113 15 127 -2z m259 2 c16 -16 16 -190 0
-206 -16 -16 -110 -16 -126 0 -16 16 -16 190 0 206 16 16 110 16 126 0z m260
0 c16 -16 16 -190 0 -206 -16 -16 -110 -16 -126 0 -16 16 -16 190 0 206 16 16
110 16 126 0z m260 0 c18 -18 16 -192 -2 -207 -9 -7 -38 -11 -73 -9 l-58 3 -3
99 c-2 64 1 103 9 112 14 17 110 19 127 2z m262 -7 c16 -31 13 -186 -4 -200
-9 -7 -38 -11 -73 -9 l-58 3 -3 104 c-2 77 1 107 10 113 7 4 36 8 65 8 42 0
54 -4 63 -19z m260 0 c15 -28 13 -173 -3 -195 -10 -14 -25 -17 -72 -14 l-60 3
-3 104 c-2 77 1 107 10 113 7 4 36 8 65 8 42 0 54 -4 63 -19z m260 0 c15 -28
13 -173 -3 -195 -10 -14 -25 -17 -72 -14 l-60 3 -3 104 c-2 77 1 107 10 113 7
4 36 8 65 8 42 0 54 -4 63 -19z m255 -96 l0 -110 -65 0 -65 0 -3 104 c-2 77 1
107 10 113 7 4 38 7 68 6 l55 -3 0 -110z m260 0 l0 -110 -65 0 -65 0 -3 104
c-2 77 1 107 10 113 7 4 38 7 68 6 l55 -3 0 -110z m260 0 l0 -110 -60 -3 c-77
-4 -85 6 -85 114 0 104 9 116 89 112 l56 -3 0 -110z m253 107 c9 -6 12 -36 10
-113 l-3 -104 -60 -3 c-77 -4 -85 6 -85 114 0 100 10 114 78 114 26 0 53 -4
60 -8z m260 0 c9 -6 12 -36 10 -113 l-3 -104 -60 -3 c-47 -3 -62 0 -72 14 -17
23 -18 185 -1 202 13 13 106 16 126 4z m261 -6 c8 -9 11 -48 9 -112 l-3 -99
-58 -3 c-35 -2 -64 2 -73 9 -18 15 -20 189 -2 207 17 17 113 15 127 -2z m260
0 c8 -9 11 -48 9 -112 l-3 -99 -58 -3 c-35 -2 -64 2 -73 9 -18 15 -20 189 -2
207 17 17 113 15 127 -2z m-18964 -106 l0 -105 -70 0 -70 0 -3 94 c-1 52 0
101 2 108 4 10 23 13 73 11 l68 -3 0 -105z m259 94 c9 -23 7 -177 -3 -192 -5
-9 -27 -12 -72 -10 l-64 3 -3 94 c-1 52 -1 100 2 108 8 20 132 18 140 -3z
m251 -94 l0 -105 -65 0 -65 0 -3 108 -3 108 68 -3 68 -3 0 -105z m260 0 l0
-105 -60 -3 c-77 -4 -85 7 -85 109 0 110 0 110 79 107 l66 -3 0 -105z m260 0
l0 -105 -58 -3 c-82 -4 -87 2 -87 113 0 50 3 95 7 99 4 4 37 6 73 4 l65 -3 0
-105z m259 94 c9 -23 7 -177 -3 -192 -5 -9 -27 -12 -72 -10 l-64 3 -3 94 c-1
52 -1 100 2 108 8 20 132 18 140 -3z m260 0 c3 -9 6 -53 6 -99 0 -100 -6 -107
-87 -103 l-58 3 -3 94 c-1 52 -1 100 2 108 8 20 132 18 140 -3z m251 -94 l0
-105 -65 0 -65 0 -3 108 -3 108 68 -3 68 -3 0 -105z m260 0 l0 -105 -60 -3
c-77 -4 -85 7 -85 109 0 110 0 110 79 107 l66 -3 0 -105z m260 0 l0 -105 -58
-3 c-82 -4 -87 2 -87 113 0 50 3 95 7 99 4 4 37 6 73 4 l65 -3 0 -105z m259
94 c9 -23 7 -177 -3 -192 -5 -9 -27 -12 -72 -10 l-64 3 -3 94 c-1 52 -1 100 2
108 8 20 132 18 140 -3z m254 -91 l-3 -108 -65 0 -65 0 -3 94 c-1 52 -1 100 2
108 4 9 26 13 71 13 l66 0 -3 -107z m257 -3 l0 -105 -65 0 -65 0 -3 108 -3
108 68 -3 68 -3 0 -105z m260 0 l0 -105 -58 -3 c-81 -4 -87 3 -87 103 0 117 0
116 79 113 l66 -3 0 -105z m6290 0 l0 -105 -70 0 -70 0 -3 94 c-1 52 0 101 2
108 4 10 23 13 73 11 l68 -3 0 -105z m259 94 c9 -23 7 -177 -3 -192 -5 -9 -27
-12 -72 -10 l-64 3 -3 94 c-1 52 -1 100 2 108 8 20 132 18 140 -3z m251 -94
l0 -105 -65 0 -65 0 -3 108 -3 108 68 -3 68 -3 0 -105z m260 0 l0 -105 -60 -3
c-77 -4 -85 7 -85 109 0 110 0 110 79 107 l66 -3 0 -105z m260 0 l0 -105 -58
-3 c-82 -4 -87 2 -87 113 0 50 3 95 7 99 4 4 37 6 73 4 l65 -3 0 -105z m259
94 c9 -23 7 -177 -3 -192 -5 -9 -27 -12 -72 -10 l-64 3 -3 94 c-1 52 -1 100 2
108 8 20 132 18 140 -3z m260 0 c3 -9 6 -53 6 -99 0 -100 -6 -107 -87 -103
l-58 3 -3 94 c-1 52 -1 100 2 108 8 20 132 18 140 -3z m251 -94 l0 -105 -65 0
-65 0 -3 108 -3 108 68 -3 68 -3 0 -105z m260 0 l0 -105 -60 -3 c-77 -4 -85 7
-85 109 0 110 0 110 79 107 l66 -3 0 -105z m260 0 l0 -105 -58 -3 c-82 -4 -87
2 -87 113 0 50 3 95 7 99 4 4 37 6 73 4 l65 -3 0 -105z m259 94 c9 -23 7 -177
-3 -192 -5 -9 -27 -12 -72 -10 l-64 3 -3 94 c-1 52 -1 100 2 108 8 20 132 18
140 -3z m254 -91 l-3 -108 -65 0 -65 0 -3 94 c-1 52 -1 100 2 108 4 9 26 13
71 13 l66 0 -3 -107z m257 -3 l0 -105 -65 0 -65 0 -3 108 -3 108 68 -3 68 -3
0 -105z m260 0 l0 -105 -58 -3 c-81 -4 -87 3 -87 103 0 117 0 116 79 113 l66
-3 0 -105z m-3538 -42 c-2 -29 -3 -8 -3 47 0 55 1 79 3 53 2 -26 2 -71 0 -100z"/>
</g>
</svg>
