<?xml version="1.0" standalone="no"?>
<!DOCTYPE svg PUBLIC "-//W3C//DTD SVG 20010904//EN"
 "http://www.w3.org/TR/2001/REC-SVG-20010904/DTD/svg10.dtd">
<svg version="1.0" xmlns="http://www.w3.org/2000/svg"
 width="368.000000pt" height="368.000000pt" viewBox="0 0 368.000000 368.000000"
 preserveAspectRatio="xMidYMid meet">
<metadata>
Created by potrace 1.14, written by Peter Selinger 2001-2017
</metadata>
<g transform="translate(0.000000,368.000000) scale(0.100000,-0.100000)"
fill="#000000" stroke="none">
<path d="M1013 3673 c76 -2 198 -2 270 0 73 1 11 3 -138 3 -148 0 -208 -2
-132 -3z"/>
<path d="M2353 3673 c37 -2 96 -2 130 0 34 2 4 3 -68 3 -71 0 -99 -1 -62 -3z"/>
<path d="M1914 3306 c-28 -7 -116 -44 -195 -83 -191 -94 -591 -251 -671 -264
-122 -19 -216 -86 -260 -186 -39 -88 -33 -198 13 -257 l20 -26 242 0 c268 0
282 3 303 60 34 94 8 203 -71 306 -19 26 -35 50 -35 54 0 7 311 132 316 127 2
-2 -6 -32 -17 -67 -27 -86 -23 -228 10 -311 32 -83 77 -146 113 -158 40 -14
672 -15 698 -1 28 15 86 110 110 181 28 80 30 199 6 284 -71 247 -335 401
-582 341z"/>
<path d="M790 2372 c-22 -12 -44 -35 -57 -62 l-23 -44 0 -545 c0 -530 1 -546
21 -587 15 -31 32 -48 63 -63 42 -21 55 -21 792 -21 l750 0 44 22 c27 14 53
37 65 58 19 34 20 53 20 590 0 542 0 556 -21 590 -11 19 -38 45 -60 57 l-39
23 -760 0 c-717 0 -762 -1 -795 -18z m1411 -223 c81 -57 68 -208 -22 -254
-102 -53 -229 20 -229 132 0 132 141 201 251 122z"/>
<path d="M2077 2067 c-13 -9 -18 -23 -15 -42 3 -27 7 -30 40 -33 33 -3 38 0
44 24 12 49 -30 80 -69 51z"/>
<path d="M2885 2364 c-40 -27 -211 -172 -277 -234 l-38 -37 0 -364 c1 -267 4
-370 13 -385 13 -24 58 -65 215 -197 114 -96 149 -109 170 -62 17 37 17 1237
1 1268 -23 43 -35 45 -84 11z"/>
<path d="M1583 940 c-62 -13 -114 -43 -160 -92 -128 -140 -78 -382 96 -462 66
-30 178 -28 245 4 80 38 134 103 150 176 7 31 6 32 -39 38 -62 10 -109 -7
-135 -48 -25 -42 -89 -63 -135 -46 -103 39 -132 162 -59 249 53 63 151 57 207
-14 28 -34 31 -35 98 -35 79 0 80 1 45 75 -53 114 -187 180 -313 155z"/>
<path d="M870 860 l0 -70 75 0 75 0 0 -210 0 -210 75 0 75 0 0 210 0 210 56 0
c83 0 94 9 94 80 l0 60 -225 0 -225 0 0 -70z"/>
<path d="M2010 650 l0 -280 75 0 75 0 0 100 0 100 90 0 90 0 0 65 0 65 -90 0
-90 0 0 45 0 45 100 0 100 0 0 70 0 70 -175 0 -175 0 0 -280z"/>
<path d="M1038 3 c117 -2 306 -2 420 0 114 1 18 2 -213 2 -231 0 -324 -1 -207
-2z"/>
<path d="M2213 3 c130 -2 344 -2 475 0 130 1 23 2 -238 2 -261 0 -368 -1 -237
-2z"/>
</g>
</svg>
